<?xml version="1.0" encoding="utf-8"?>
<!-- Generator: Adobe Illustrator 27.5.0, SVG Export Plug-In . SVG Version: 6.00 Build 0)  -->
<svg version="1.1" xmlns="http://www.w3.org/2000/svg" xmlns:xlink="http://www.w3.org/1999/xlink" x="0px" y="0px"
	 viewBox="0 0 750 500" style="enable-background:new 0 0 750 500;" xml:space="preserve">
<g id="BACKGROUND">
	<rect style="fill:#FFFFFF;" width="750" height="500"/>
</g>
<g id="OBJECTS">
	<g>
		<g>
			<g>
				<g>
					<path style="fill:#FFDCEA;" d="M549.2,366.645c-1.034-9.15-1.809-18.381-1.075-27.56c0.74-9.258,3.257-20.1,8.397-27.961
						c2.967-4.537,13.265-15.112,14.697-3.077c0.708,5.95-1.965,11.348-3.939,16.785c-1.891,5.209-4.517,10.226-6.165,15.512
						c-2.633,8.442-4.453,17.117-7.376,25.474"/>
				</g>
				<g>
					<path style="fill:#FFDCEA;" d="M553.57,383.369c7.393-12.496,15.203-24.752,24.942-34.978
						c8.122-8.528,18.159-16.369,29.433-20.639c7.598-2.878,29.25-8.88,32.401,2.955c2.548,9.575-8.003,16.553-15.049,20.502
						c-10.089,5.656-20.966,9.738-30.944,15.667c-11.526,6.848-22.21,15.043-34.037,21.409"/>
				</g>
				<g>
					<path style="fill:#FFDCEA;" d="M558.61,355.505c4.017-11.634,7.95-23.016,14.388-33.505c4.29-6.99,11.944-19.264,21.363-19.847
						c6.078-0.376,5.735,8.948,4.772,12.853c-1.554,6.3-5.401,11.915-9.66,16.704c-10.228,11.5-19.228,21.964-28.021,34.594"/>
				</g>
				<path style="fill:none;stroke:#FFFFFF;stroke-linecap:round;stroke-miterlimit:10;" d="M591.736,310.278
					c0,0-19.922,22.258-34.271,60.04"/>
				<path style="fill:none;stroke:#FFFFFF;stroke-linecap:round;stroke-miterlimit:10;" d="M626.448,334.574
					c0,0-30.776,5.213-74.026,54.864"/>
				<path style="fill:none;stroke:#FFFFFF;stroke-linecap:round;stroke-miterlimit:10;" d="M565.91,310.519
					c0,0-13.52,17.354-15.572,62.916"/>
			</g>
			<g>
				<g>
					<path style="fill:#FFDCEA;" d="M241.775,369.405c1.99-12.533,3.63-25.192,3.189-37.874
						c-0.444-12.791-3.238-27.873-9.827-39.014c-3.803-6.43-17.324-21.627-20.042-5.148c-1.344,8.148,2.002,15.744,4.382,23.352
						c2.28,7.288,5.584,14.358,7.525,21.738c3.101,11.785,5.068,23.841,8.575,35.527"/>
				</g>
				<g>
					<path style="fill:#FFDCEA;" d="M235.141,375.882c-3.277-15.718-7.075-31.335-13.618-45.515
						c-5.457-11.826-13.162-23.616-23.438-32.11c-6.925-5.724-27.445-19.737-34.967-8.475c-6.085,9.112,2.467,20.183,8.431,26.832
						c8.54,9.522,18.468,17.678,26.795,27.445c9.619,11.283,17.876,23.674,27.981,34.56"/>
				</g>
				<g>
					<path style="fill:#FFDCEA;" d="M210.342,367.391c-8.452-10.42-18.344-19.67-29.307-27.404
						c-3.705-2.613-22.612-15.437-22.564-2.942c0.034,8.568,10.284,13.496,16.604,16.817c13.024,6.845,27.118,11.77,39.239,20.11"/>
				</g>
				<path style="fill:none;stroke:#FFFFFF;stroke-linecap:round;stroke-miterlimit:10;" d="M164.484,339.296
					c0,0,26.096,11.6,53.417,38.921"/>
				<path style="fill:none;stroke:#FFFFFF;stroke-linecap:round;stroke-miterlimit:10;" d="M176.283,298.79
					c0,0,30.352,16.444,57.893,83.853"/>
				<path style="fill:none;stroke:#FFFFFF;stroke-linecap:round;stroke-miterlimit:10;" d="M222.251,291.101
					c0,0,17.537,24.729,17.537,87.58"/>
			</g>
			<g>
				<path style="fill:#FFDCEA;" d="M606.2,380.19c28.033,3.357,50.328,31.37,51.074,49.875H555.126
					C555.126,403.738,575.19,376.477,606.2,380.19z"/>
				<g>
					<defs>
						<path id="SVGID_1_" d="M606.2,380.19c28.033,3.357,50.328,31.37,51.074,49.875H555.126
							C555.126,403.738,575.19,376.477,606.2,380.19z"/>
					</defs>
					<clipPath id="SVGID_00000129896162115583013840000010219931768183759235_">
						<use xlink:href="#SVGID_1_"  style="overflow:visible;"/>
					</clipPath>
					<g style="clip-path:url(#SVGID_00000129896162115583013840000010219931768183759235_);">
						
							<line style="fill:none;stroke:#FFFFFF;stroke-linecap:round;stroke-miterlimit:10;" x1="599.944" y1="376.209" x2="603.671" y2="434.707"/>
						
							<line style="fill:none;stroke:#FFFFFF;stroke-linecap:round;stroke-miterlimit:10;" x1="601.295" y1="397.409" x2="611.167" y2="378.462"/>
						
							<line style="fill:none;stroke:#FFFFFF;stroke-linecap:round;stroke-miterlimit:10;" x1="590.108" y1="433.356" x2="565.677" y2="391.326"/>
						
							<line style="fill:none;stroke:#FFFFFF;stroke-linecap:round;stroke-miterlimit:10;" x1="584.233" y1="380.638" x2="580.896" y2="417.509"/>
						
							<line style="fill:none;stroke:#FFFFFF;stroke-linecap:round;stroke-miterlimit:10;" x1="582.069" y1="436.224" x2="556.465" y2="414.845"/>
						
							<line style="fill:none;stroke:#FFFFFF;stroke-linecap:round;stroke-miterlimit:10;" x1="565.977" y1="422.788" x2="554.915" y2="421.362"/>
						
							<line style="fill:none;stroke:#FFFFFF;stroke-linecap:round;stroke-miterlimit:10;" x1="636.927" y1="389.295" x2="606.487" y2="432.517"/>
						
							<line style="fill:none;stroke:#FFFFFF;stroke-linecap:round;stroke-miterlimit:10;" x1="619.81" y1="381.784" x2="624.088" y2="407.525"/>
						
							<line style="fill:none;stroke:#FFFFFF;stroke-linecap:round;stroke-miterlimit:10;" x1="655.965" y1="411.564" x2="622.744" y2="433.356"/>
						
							<line style="fill:none;stroke:#FFFFFF;stroke-linecap:round;stroke-miterlimit:10;" x1="648.662" y1="401.464" x2="618.933" y2="414.845"/>
						
							<line style="fill:none;stroke:#FFFFFF;stroke-linecap:round;stroke-miterlimit:10;" x1="643.152" y1="419.969" x2="661.214" y2="422.788"/>
					</g>
				</g>
			</g>
			<g>
				<path style="fill:#FFC0D8;" d="M227.408,352.131c-43.804,5.245-78.642,49.018-79.807,77.934h159.615
					C307.215,388.927,275.865,346.329,227.408,352.131z"/>
				<g>
					<defs>
						<path id="SVGID_00000021102455890490855300000003136662338778729860_" d="M227.408,352.131
							c-43.804,5.245-78.642,49.018-79.807,77.934h159.615C307.215,388.927,275.865,346.329,227.408,352.131z"/>
					</defs>
					<clipPath id="SVGID_00000099657563136804345580000007778796644927327646_">
						<use xlink:href="#SVGID_00000021102455890490855300000003136662338778729860_"  style="overflow:visible;"/>
					</clipPath>
					<g style="clip-path:url(#SVGID_00000099657563136804345580000007778796644927327646_);">
						
							<line style="fill:none;stroke:#FFDCEA;stroke-linecap:round;stroke-miterlimit:10;" x1="237.184" y1="345.911" x2="231.361" y2="437.318"/>
						
							<line style="fill:none;stroke:#FFDCEA;stroke-linecap:round;stroke-miterlimit:10;" x1="234.272" y1="390.832" x2="204.6" y2="354.932"/>
						
							<line style="fill:none;stroke:#FFDCEA;stroke-linecap:round;stroke-miterlimit:10;" x1="252.554" y1="435.208" x2="290.729" y2="369.533"/>
						
							<line style="fill:none;stroke:#FFDCEA;stroke-linecap:round;stroke-miterlimit:10;" x1="261.733" y1="352.831" x2="266.948" y2="410.446"/>
						
							<line style="fill:none;stroke:#FFDCEA;stroke-linecap:round;stroke-miterlimit:10;" x1="265.116" y1="439.689" x2="305.123" y2="406.283"/>
						
							<line style="fill:none;stroke:#FFDCEA;stroke-linecap:round;stroke-miterlimit:10;" x1="290.26" y1="418.694" x2="307.546" y2="416.466"/>
						
							<line style="fill:none;stroke:#FFDCEA;stroke-linecap:round;stroke-miterlimit:10;" x1="235.105" y1="378.548" x2="254.555" y2="345.911"/>
						
							<line style="fill:none;stroke:#FFDCEA;stroke-linecap:round;stroke-miterlimit:10;" x1="183.255" y1="359.78" x2="228.536" y2="433.205"/>
						
							<line style="fill:none;stroke:#FFDCEA;stroke-linecap:round;stroke-miterlimit:10;" x1="165.482" y1="378.681" x2="213.337" y2="408.56"/>
						
							<line style="fill:none;stroke:#FFDCEA;stroke-linecap:round;stroke-miterlimit:10;" x1="155.959" y1="394.845" x2="201.557" y2="435.208"/>
						
							<line style="fill:none;stroke:#FFDCEA;stroke-linecap:round;stroke-miterlimit:10;" x1="147.601" y1="412.489" x2="181.643" y2="417.58"/>
					</g>
				</g>
			</g>
			<g>
				<path style="fill:#FFC0D8;" d="M510.878,335.028c53.417,6.396,95.901,59.776,97.322,95.037H413.556
					C413.556,379.898,451.787,327.952,510.878,335.028z"/>
				<g>
					<defs>
						<path id="SVGID_00000118362772925500328390000008719246290249936783_" d="M510.878,335.028
							c53.417,6.396,95.901,59.776,97.322,95.037H413.556C413.556,379.898,451.787,327.952,510.878,335.028z"/>
					</defs>
					<clipPath id="SVGID_00000139278140474149125850000008235997465613255845_">
						<use xlink:href="#SVGID_00000118362772925500328390000008719246290249936783_"  style="overflow:visible;"/>
					</clipPath>
					<g style="clip-path:url(#SVGID_00000139278140474149125850000008235997465613255845_);">
						
							<line style="fill:none;stroke:#FFDCEA;stroke-linecap:round;stroke-miterlimit:10;" x1="498.957" y1="327.442" x2="506.058" y2="438.91"/>
						
							<line style="fill:none;stroke:#FFDCEA;stroke-linecap:round;stroke-miterlimit:10;" x1="502.508" y1="382.221" x2="538.692" y2="338.444"/>
						
							<line style="fill:none;stroke:#FFDCEA;stroke-linecap:round;stroke-miterlimit:10;" x1="480.214" y1="436.336" x2="433.66" y2="356.248"/>
						
							<line style="fill:none;stroke:#FFDCEA;stroke-linecap:round;stroke-miterlimit:10;" x1="469.02" y1="335.881" x2="462.661" y2="406.14"/>
						
							<line style="fill:none;stroke:#FFDCEA;stroke-linecap:round;stroke-miterlimit:10;" x1="464.895" y1="441.802" x2="416.108" y2="401.063"/>
						
							<line style="fill:none;stroke:#FFDCEA;stroke-linecap:round;stroke-miterlimit:10;" x1="434.233" y1="416.198" x2="413.154" y2="413.481"/>
						
							<line style="fill:none;stroke:#FFDCEA;stroke-linecap:round;stroke-miterlimit:10;" x1="501.492" y1="367.242" x2="477.774" y2="327.442"/>
						
							<line style="fill:none;stroke:#FFDCEA;stroke-linecap:round;stroke-miterlimit:10;" x1="564.721" y1="344.355" x2="509.503" y2="433.894"/>
						
							<line style="fill:none;stroke:#FFDCEA;stroke-linecap:round;stroke-miterlimit:10;" x1="577.835" y1="356.248" x2="540.78" y2="383.176"/>
						
							<line style="fill:none;stroke:#FFDCEA;stroke-linecap:round;stroke-miterlimit:10;" x1="598.008" y1="387.115" x2="542.403" y2="436.336"/>
						
							<line style="fill:none;stroke:#FFDCEA;stroke-linecap:round;stroke-miterlimit:10;" x1="573.846" y1="408.503" x2="586.394" y2="375.225"/>
						
							<line style="fill:none;stroke:#FFDCEA;stroke-linecap:round;stroke-miterlimit:10;" x1="557.623" y1="422.864" x2="612.922" y2="411.046"/>
					</g>
				</g>
			</g>
			<g>
				<path style="fill:#FFDCEA;" d="M135.272,380.19c-28.033,3.357-50.328,31.37-51.074,49.875h102.148
					C186.346,403.738,166.283,376.477,135.272,380.19z"/>
				<g>
					<defs>
						<path id="SVGID_00000178182472319676430830000009395689111318380964_" d="M135.272,380.19
							c-28.033,3.357-50.328,31.37-51.074,49.875h102.148C186.346,403.738,166.283,376.477,135.272,380.19z"/>
					</defs>
					<clipPath id="SVGID_00000070804566231850082300000005802911965589303958_">
						<use xlink:href="#SVGID_00000178182472319676430830000009395689111318380964_"  style="overflow:visible;"/>
					</clipPath>
					<g style="clip-path:url(#SVGID_00000070804566231850082300000005802911965589303958_);">
						
							<line style="fill:none;stroke:#FFFFFF;stroke-linecap:round;stroke-miterlimit:10;" x1="141.528" y1="376.209" x2="137.802" y2="434.707"/>
						
							<line style="fill:none;stroke:#FFFFFF;stroke-linecap:round;stroke-miterlimit:10;" x1="139.665" y1="404.957" x2="130.305" y2="378.462"/>
						
							<line style="fill:none;stroke:#FFFFFF;stroke-linecap:round;stroke-miterlimit:10;" x1="151.365" y1="433.356" x2="175.796" y2="391.326"/>
						
							<line style="fill:none;stroke:#FFFFFF;stroke-linecap:round;stroke-miterlimit:10;" x1="157.239" y1="380.638" x2="160.576" y2="417.509"/>
						
							<line style="fill:none;stroke:#FFFFFF;stroke-linecap:round;stroke-miterlimit:10;" x1="159.404" y1="436.224" x2="185.007" y2="414.845"/>
						
							<line style="fill:none;stroke:#FFFFFF;stroke-linecap:round;stroke-miterlimit:10;" x1="175.495" y1="422.788" x2="186.558" y2="421.362"/>
						
							<line style="fill:none;stroke:#FFFFFF;stroke-linecap:round;stroke-miterlimit:10;" x1="140.198" y1="397.096" x2="152.645" y2="376.209"/>
						
							<line style="fill:none;stroke:#FFFFFF;stroke-linecap:round;stroke-miterlimit:10;" x1="104.545" y1="389.295" x2="130.305" y2="433.356"/>
						
							<line style="fill:none;stroke:#FFFFFF;stroke-linecap:round;stroke-miterlimit:10;" x1="121.663" y1="381.784" x2="121.04" y2="417.509"/>
						
							<line style="fill:none;stroke:#FFFFFF;stroke-linecap:round;stroke-miterlimit:10;" x1="89.547" y1="407.525" x2="118.728" y2="433.356"/>
						
							<line style="fill:none;stroke:#FFFFFF;stroke-linecap:round;stroke-miterlimit:10;" x1="84.198" y1="418.817" x2="105.984" y2="422.075"/>
					</g>
				</g>
			</g>
		</g>
		<g>
			<g>
				<path style="fill:#B7D1FF;" d="M461.455,430.065H288.545c-6.146,0-11.128-4.982-11.128-11.128V91.063
					c0-6.146,4.982-11.128,11.128-11.128h172.909c6.146,0,11.128,4.982,11.128,11.128v327.874
					C472.583,425.083,467.6,430.065,461.455,430.065z"/>
				<g>
					<path style="fill:none;stroke:#FFFFFF;stroke-linecap:round;stroke-linejoin:round;stroke-miterlimit:10;" d="M381.984,411.544
						c0,3.857-3.127,6.984-6.984,6.984c-3.857,0-6.984-3.127-6.984-6.984c0-3.857,3.127-6.984,6.984-6.984
						C378.857,404.56,381.984,407.687,381.984,411.544z"/>
				</g>
				<rect x="282.637" y="104.895" style="fill:#FFFFFF;" width="184.726" height="288.209"/>
				
					<line style="fill:none;stroke:#6CA0FF;stroke-width:3;stroke-linecap:round;stroke-linejoin:round;stroke-miterlimit:10;" x1="358.228" y1="91.653" x2="391.772" y2="91.653"/>
				
					<line style="fill:none;stroke:#6CA0FF;stroke-width:3;stroke-linecap:round;stroke-linejoin:round;stroke-miterlimit:10;" x1="345.802" y1="91.653" x2="351.988" y2="91.653"/>
				<g>
					<defs>
						<path id="SVGID_00000123421994926380594830000005480601198288240280_" d="M461.455,430.065H288.545
							c-6.146,0-11.128-4.982-11.128-11.128V91.063c0-6.146,4.982-11.128,11.128-11.128h172.909c6.146,0,11.128,4.982,11.128,11.128
							v327.874C472.583,425.083,467.6,430.065,461.455,430.065z"/>
					</defs>
					<clipPath id="SVGID_00000159471835426407558940000011358100536181842088_">
						<use xlink:href="#SVGID_00000123421994926380594830000005480601198288240280_"  style="overflow:visible;"/>
					</clipPath>
					<g style="clip-path:url(#SVGID_00000159471835426407558940000011358100536181842088_);">
						
							<linearGradient id="SVGID_00000101798670656232011490000006806574335900061104_" gradientUnits="userSpaceOnUse" x1="515.7789" y1="94.0986" x2="223.0817" y2="386.7959">
							<stop  offset="0.2704" style="stop-color:#FFFFFF;stop-opacity:0.4"/>
							<stop  offset="1" style="stop-color:#FFFFFF;stop-opacity:0.2"/>
						</linearGradient>
						<polygon style="fill:url(#SVGID_00000101798670656232011490000006806574335900061104_);" points="421.229,42 275.18,438.895 
							317.632,438.895 463.68,42 						"/>
						
							<linearGradient id="SVGID_00000090259936385429017580000015793494527519843495_" gradientUnits="userSpaceOnUse" x1="553.0172" y1="100.212" x2="272.5466" y2="380.6826">
							<stop  offset="0.2704" style="stop-color:#FFFFFF;stop-opacity:0.4"/>
							<stop  offset="1" style="stop-color:#FFFFFF;stop-opacity:0.2"/>
						</linearGradient>
						<polygon style="fill:url(#SVGID_00000090259936385429017580000015793494527519843495_);" points="476.807,42 330.758,438.895 
							348.757,438.895 494.805,42 						"/>
					</g>
				</g>
				<g>
					<defs>
						
							<rect id="SVGID_00000023979044038096837980000001907091949246359695_" x="282.637" y="104.895" width="184.726" height="288.209"/>
					</defs>
					<clipPath id="SVGID_00000085930103037608043890000007660839671645157821_">
						<use xlink:href="#SVGID_00000023979044038096837980000001907091949246359695_"  style="overflow:visible;"/>
					</clipPath>
					<path style="opacity:0.25;clip-path:url(#SVGID_00000085930103037608043890000007660839671645157821_);fill:#B7D1FF;" d="
						M317.687,99.588h-85.918c-14.736,0-26.681,11.946-26.681,26.681v0c0,14.736,11.946,26.681,26.681,26.681h7.66l4.804,6.207
						l4.804-6.207h68.65c14.736,0,26.681-11.946,26.681-26.681v0C344.369,111.534,332.423,99.588,317.687,99.588z"/>
					<path style="opacity:0.25;clip-path:url(#SVGID_00000085930103037608043890000007660839671645157821_);fill:#B7D1FF;" d="
						M370.886,139.715h85.918c14.736,0,26.681,11.946,26.681,26.681l0,0c0,14.736-11.946,26.681-26.681,26.681h-3.66l-4.804,6.207
						l-4.804-6.207h-72.65c-14.736,0-26.681-11.946-26.681-26.681l0,0C344.204,151.661,356.15,139.715,370.886,139.715z"/>
					<g style="clip-path:url(#SVGID_00000085930103037608043890000007660839671645157821_);">
						<path style="opacity:0.25;fill:#B7D1FF;" d="M408.651,232.695h-88.918c-14.736,0-26.681,11.946-26.681,26.681l0,0
							c0,14.736,11.946,26.681,26.681,26.681h7.66l4.804,6.207l4.804-6.207h71.65c14.736,0,26.681-11.946,26.681-26.681l0,0
							C435.332,244.641,423.387,232.695,408.651,232.695z"/>
						<g>
							
								<line style="fill:none;stroke:#FFFFFF;stroke-width:1.5;stroke-linecap:round;stroke-linejoin:round;stroke-miterlimit:10;" x1="307.951" y1="245.661" x2="418.252" y2="245.661"/>
							
								<line style="fill:none;stroke:#FFFFFF;stroke-width:1.5;stroke-linecap:round;stroke-linejoin:round;stroke-miterlimit:10;" x1="339.685" y1="254.805" x2="418.252" y2="254.805"/>
							
								<line style="fill:none;stroke:#FFFFFF;stroke-width:1.5;stroke-linecap:round;stroke-linejoin:round;stroke-miterlimit:10;" x1="307.951" y1="254.805" x2="330.133" y2="254.805"/>
							
								<line style="fill:none;stroke:#FFFFFF;stroke-width:1.5;stroke-linecap:round;stroke-linejoin:round;stroke-miterlimit:10;" x1="391.804" y1="263.949" x2="418.252" y2="263.949"/>
							
								<line style="fill:none;stroke:#FFFFFF;stroke-width:1.5;stroke-linecap:round;stroke-linejoin:round;stroke-miterlimit:10;" x1="307.951" y1="263.949" x2="381.599" y2="263.949"/>
							
								<line style="fill:none;stroke:#FFFFFF;stroke-width:1.5;stroke-linecap:round;stroke-linejoin:round;stroke-miterlimit:10;" x1="307.951" y1="273.093" x2="364.726" y2="273.093"/>
						</g>
					</g>
					<g style="clip-path:url(#SVGID_00000085930103037608043890000007660839671645157821_);">
						<path style="opacity:0.25;fill:#B7D1FF;" d="M344.856,317.859h88.918c14.736,0,26.681,11.946,26.681,26.681v0
							c0,14.736-11.946,26.681-26.681,26.681h-7.66l-4.804,6.207l-4.804-6.207h-71.65c-14.736,0-26.681-11.946-26.681-26.681v0
							C318.174,329.805,330.12,317.859,344.856,317.859z"/>
						<g>
							
								<line style="fill:none;stroke:#FFFFFF;stroke-width:1.5;stroke-linecap:round;stroke-linejoin:round;stroke-miterlimit:10;" x1="333.074" y1="330.824" x2="443.375" y2="330.824"/>
							
								<line style="fill:none;stroke:#FFFFFF;stroke-width:1.5;stroke-linecap:round;stroke-linejoin:round;stroke-miterlimit:10;" x1="382.397" y1="339.968" x2="443.375" y2="339.968"/>
							
								<line style="fill:none;stroke:#FFFFFF;stroke-width:1.5;stroke-linecap:round;stroke-linejoin:round;stroke-miterlimit:10;" x1="333.074" y1="339.968" x2="374.032" y2="339.968"/>
							
								<line style="fill:none;stroke:#FFFFFF;stroke-width:1.5;stroke-linecap:round;stroke-linejoin:round;stroke-miterlimit:10;" x1="423.245" y1="349.112" x2="443.375" y2="349.112"/>
							
								<line style="fill:none;stroke:#FFFFFF;stroke-width:1.5;stroke-linecap:round;stroke-linejoin:round;stroke-miterlimit:10;" x1="333.074" y1="349.112" x2="413.039" y2="349.112"/>
							
								<line style="fill:none;stroke:#FFFFFF;stroke-width:1.5;stroke-linecap:round;stroke-linejoin:round;stroke-miterlimit:10;" x1="333.074" y1="358.257" x2="402.209" y2="358.257"/>
						</g>
					</g>
				</g>
			</g>
			
				<line style="fill:none;stroke:#6CA0FF;stroke-linejoin:round;stroke-miterlimit:10;" x1="64.579" y1="430.065" x2="685.42" y2="430.065"/>
		</g>
		<g>
			<g>
				<g>
					<path style="fill:#00276F;" d="M254.256,170.433c-0.798-1.141-1.729-2.331-3.071-2.703c-0.382-0.106-0.779-0.139-1.175-0.145
						c-1.586-0.025-3.178,0.38-4.558,1.161c-0.39,0.221-0.77,0.478-1.077,0.807c-0.365,0.392-0.514,0.708-0.472,1.231
						c0.031,0.383,0.039,0.768,0.015,1.151c-0.037,0.597-0.167,1.175-0.3,1.756c-0.356,1.558-0.296,3.041,0.043,4.605
						c0.127,0.587,0.142,1.226-0.085,1.778c-0.201,0.489-0.587,0.859-0.945,1.234c-0.71,0.745-1.355,1.585-1.734,2.564
						c-0.379,0.979-0.469,2.115-0.083,3.091c0.202,0.511,0.524,0.959,0.77,1.449c0.622,1.238,0.718,2.754,0.282,4.076
						c-0.099,0.3,0.113,0.619,0.424,0.677c2.745,0.51,5.543,0.797,8.313,0.495c2.986-0.325,5.955-1.371,8.295-3.359"/>
				</g>
				<path style="fill:#F886BC;" d="M245.276,167.382c-1.161,5.249-0.274,19.431,3.657,21.191c3.931,1.761,8.891-2.18,10.367-3.954
					c2.16-2.594,6.24-13.556,2.579-17.05C258.219,164.076,246.904,160.021,245.276,167.382z"/>
				<path style="fill:#F886BC;" d="M254.229,185.381l2.875,10.423l-1.144,2.816c0,0-0.762,5.621,0.167,5.905
					c3.729,1.143,11.946-10.327,11.946-10.327l-6.574-15.005"/>
				<path style="fill:#00276F;" d="M264.625,168.25c-1.139-4.97-7.375-8.125-12.75-7.3c-4.401-1.266-12.953,3.369-9.128,12.481
					c0,0,3.399-3.144,7.753-7.307c2.75,8.625,13.198,12.979,13.198,12.979S266,174.25,264.625,168.25z"/>
				<g>
					<path style="fill:#00276F;" d="M250.621,161.219c3.954-5.275,13.485-1.835,15.976,0.82c2.821,3.006,3.941,6.04,7.201,8.035
						c1.506,0.922,3.383,1.52,4.215,3.077c1.148,2.147-0.258,5.156,1.253,7.065c0.637,0.805,3.702,3.268,3.702,7.252
						c-3.343,2.282-6.053,1.547-9.767,3.044c-2.695,1.086-6.403,2.862-9.427,3.365c-0.361,0.06-0.674-0.254-0.633-0.618
						c0.148-1.294,0.386-2.925-0.169-3.942c-0.288-0.528-0.768-0.923-1.111-1.417c-0.837-1.207-0.746-2.815-0.511-4.265
						c0.234-1.45,0.574-2.96,0.133-4.361c-0.409-1.296-1.432-2.3-2.503-3.137"/>
				</g>
				<g>
					<path style="fill:#00276F;" d="M260.762,160.508c-0.763,0.081-1.303-0.719-1.58-1.434c-0.366-0.945-0.602-2.003-0.282-2.964
						c0.748-2.246,3.739-2.389,5.455-1.261c1.482,0.975,2.563,3.158,1.364,4.757c-0.839,1.118-2.573,1.368-3.848,1.612"/>
				</g>
				<g>
					<path style="fill:#F886BC;" d="M258.998,177.872c0.017-0.201,0.2-0.342,0.367-0.455c0.762-0.519,1.703-1.06,2.55-0.697
						c0.439,0.188,0.753,0.596,0.932,1.039c0.599,1.482,0.424,3.456-0.705,4.676c-1.008,1.09-3.663,1.831-4.107-0.178"/>
				</g>
				<path style="fill:none;stroke:#D34F9B;stroke-width:0.75;stroke-miterlimit:10;" d="M249.035,176.31
					c0,0-2.576,4.492-1.765,5.302s2.46,0.314,2.46,0.314"/>
				<g>
					<path style="fill:#00276F;" d="M252.222,176.151c-0.023,0.339,0.109,0.752,0.156,1.009c0.085,0.458,0.606,0.571,0.961,0.329
						c0.66-0.45,0.071-2.214-0.794-1.852C252.322,175.731,252.237,175.925,252.222,176.151z"/>
				</g>
				<g>
					<path style="fill:#00276F;" d="M245.58,176.151c-0.023,0.339,0.109,0.752,0.156,1.009c0.085,0.458,0.606,0.571,0.961,0.329
						c0.66-0.45,0.071-2.214-0.794-1.852C245.68,175.731,245.595,175.925,245.58,176.151z"/>
				</g>
				<path style="fill:none;stroke:#00276F;stroke-width:0.75;stroke-linecap:round;stroke-miterlimit:10;" d="M250.453,174.324
					c0,0,1.61-2.009,4.363,0"/>
				<path style="fill:none;stroke:#00276F;stroke-width:0.75;stroke-linecap:round;stroke-miterlimit:10;" d="M245.317,174.455
					c0.604-0.599,1.598-1.066,2.685-0.131"/>
				<path style="fill:#FFFFFF;" d="M248.421,184.148l5.004-1.209c0,0-0.885,3.023-3.363,3.023
					C248.853,185.961,248.421,184.148,248.421,184.148z"/>
				<path style="fill:none;stroke:#D34F9B;stroke-width:0.75;stroke-miterlimit:10;" d="M255.058,188.385
					c0,0,3.347-1.094,4.677-3.935"/>
			</g>
			<path style="fill:#DD3C91;" d="M211.785,219.656c0,0-0.797,2.184,0.574,5.919c1.768,4.818,20.815,34.604,32.904,35.71
				c12.089,1.106,24.255-35.141,24.255-46.296c0-11.155-9.839-14.488-16.149-6.442c-6.31,8.046-13.58,36.015-13.58,36.015
				L211.785,219.656z"/>
			<g>
				<path style="fill:#DD3C91;" d="M224.251,229.426c-0.457-1.658-2.308-4.426-3.292-5.774c-0.55-0.753-2.449-3.4-3.534-2.888
					c-0.746,0.352,0.039,2.336,0.335,2.893c0.429,0.807,1.023,1.488,1.613,2.159"/>
			</g>
			<g>
				<g>
					<path style="fill:#F886BC;" d="M224.175,402.728l-4.79,23.291c0,0-19.106,11.235-19.106,11.473
						c0,0.239,18.187,0.894,18.187,0.894l8.05-3.935h7.861c0.921,0,1.604-0.856,1.399-1.754l-1.637-7.18l8.521-24.519"/>
					<path style="fill:#00276F;" d="M201.589,434.804c2.864-1.665,13.614-6.977,13.614-6.977l11.253,6.624h9.72v5.605h-9.72v-4.234
						h-1.238c-0.435,0-0.857,0.144-1.201,0.409l-4.245,3.276c-0.46,0.355-1.026,0.548-1.607,0.548c0,0-15.382,0-17.886,0
						C197.775,440.056,197.214,437.347,201.589,434.804z"/>
					<g>
						<polygon style="fill:#00276F;" points="230.506,435.507 235.126,429.277 234.585,426.904 229.107,434.469 						"/>
					</g>
				</g>
				<path style="fill:#EF8318;" d="M290,247.167c0,0,14.667,23.167-1.657,46.562c-6.598,9.455-28.776,48.925-28.776,48.925
					l-12.234,70.891H215c0,0,10.373-70.224,15.04-82.891c4.667-12.667,33.822-72.122,33.822-72.122v-9.198"/>
				<path style="fill:none;stroke:#AF480E;stroke-width:0.75;stroke-miterlimit:10;" d="M275.564,292.321
					c-6.598,9.455-26.193,50.332-26.193,50.332l-12.234,70.891"/>
				<path style="fill:none;stroke:#AF480E;stroke-width:0.75;stroke-miterlimit:10;stroke-dasharray:2,1.5;" d="M278.042,292.321
					c-6.598,9.455-26.193,50.332-26.193,50.332l-12.234,70.891"/>
				<g>
					<path style="fill:#F886BC;" d="M271.194,385.611l16.423,16.54c0,0-9.078,19.884-8.943,20.077
						c0.135,0.193,15.198-9.566,15.198-9.566l4.276-7.733l6.35-4.447c0.744-0.521,0.811-1.599,0.138-2.208l-5.384-4.873
						l-14.104-19.643"/>
					<path style="fill:#00276F;" d="M278.212,419.316c1.372-2.965,7.051-13.338,7.051-13.338l12.838-1.015l7.852-5.499l3.171,4.528
						l-7.852,5.499l-2.395-3.42l-1,0.7c-0.351,0.246-0.611,0.601-0.738,1.01l-1.576,5.048c-0.171,0.548-0.518,1.023-0.988,1.352
						c0,0-12.425,8.702-14.448,10.119C278.102,425.717,276.116,423.845,278.212,419.316z"/>
					<g>
						<polygon style="fill:#00276F;" points="301.968,403.524 302.177,395.878 300.397,394.267 300.251,403.477 						"/>
					</g>
				</g>
				<path style="fill:#FFAB37;" d="M262.333,249.126l-1.182,9.405c0,0-38.807,47.574-38.807,67.648
					c0,19.593,43.794,68.488,43.794,68.488L290.667,376l-31.884-45.645c0,0,31.171-37.975,36.55-43.355
					c9-9,8.387-24.333-2.973-39.833"/>
				<path style="fill:none;stroke:#AF480E;stroke-width:0.75;stroke-miterlimit:10;" d="M261.568,255.215
					c0,0,17.244,1.775,33.613-3.849"/>
				
					<line style="fill:none;stroke:#AF480E;stroke-width:0.75;stroke-linecap:round;stroke-miterlimit:10;" x1="268.87" y1="255.478" x2="268.87" y2="249.933"/>
				
					<line style="fill:none;stroke:#AF480E;stroke-width:0.75;stroke-miterlimit:10;" x1="290.453" y1="252.79" x2="288.549" y2="247.662"/>
				<path style="fill:none;stroke:#AF480E;stroke-width:0.75;stroke-miterlimit:10;" d="M284.565,380.643l-31.957-46.132
					c-1.719-2.481-1.655-5.781,0.164-8.19c7.443-9.859,26.25-34.708,30.195-39.321c8.276-9.678,9.143-21.064,2.905-33.166"/>
				<g>
					<g>
						
							<line style="fill:none;stroke:#AF480E;stroke-width:0.75;stroke-miterlimit:10;" x1="285.061" y1="376.681" x2="284.491" y2="375.86"/>
						<path style="fill:none;stroke:#AF480E;stroke-width:0.75;stroke-miterlimit:10;stroke-dasharray:1.9862,1.4897;" d="
							M283.642,374.636l-28.709-41.379c-1.2-1.732-1.157-4.033,0.112-5.715c6.667-8.835,26.996-35.723,31.116-40.541
							c7.919-9.26,8.582-20.46,3.16-32.01"/>
						<path style="fill:none;stroke:#AF480E;stroke-width:0.75;stroke-miterlimit:10;" d="M288.999,254.318
							c-0.146-0.298-0.295-0.596-0.449-0.894"/>
					</g>
				</g>
				<path style="fill:none;stroke:#AF480E;stroke-width:0.75;stroke-miterlimit:10;" d="M278.374,254.952
					c0,0,1.074,3.872,4.199,5.372s6.634,2.406,6.634,2.406"/>
				<path style="fill:none;stroke:#AF480E;stroke-width:0.75;stroke-miterlimit:10;" d="M296.75,265.25c0,0,1.413-0.105,3.956-0.865
					"/>
				<path style="fill:none;stroke:#AF480E;stroke-width:0.75;stroke-miterlimit:10;" d="M296.75,267.167
					c0,0,1.809-0.049,4.353-0.809"/>
				<polygon style="fill:#AF480E;" points="262.418,390.4 266.854,396.609 292.187,376.75 287.377,371.291 				"/>
				<polygon style="fill:#AF480E;" points="214.409,413.544 216.052,406.56 248.538,406.56 248.538,413.544 				"/>
			</g>
			<g>
				<path style="fill:#00276F;" d="M227.15,232.061c0.144,0.142,0.145,0.373,0.004,0.516l-0.859,0.872
					c-0.142,0.144-0.373,0.145-0.517,0.004l-16.981-16.743c-0.144-0.142-0.145-0.373-0.004-0.516l0.859-0.872
					c0.142-0.144,0.373-0.145,0.516-0.004"/>
				
					<line style="fill:none;stroke:#2D5491;stroke-width:0.5;stroke-linecap:round;stroke-miterlimit:10;" x1="210.988" y1="217.539" x2="212.359" y2="218.891"/>
				
					<line style="fill:none;stroke:#2D5491;stroke-width:0.5;stroke-linecap:round;stroke-miterlimit:10;" x1="212.899" y1="219.451" x2="213.107" y2="219.656"/>
			</g>
			<path style="fill:#0070E4;" d="M287.478,208.728c-6.361-13.094-19.586-14.943-19.586-14.943s-10.496,8.608-11.932,4.835
				c-1.526,2.27-11.293,19.214-9.96,27.881c1.333,8.667,8.833,9.868,10.333,11.75c1.5,1.882,5.044,13.916,5.513,14.75
				c15.122-0.294,30.514-5.833,30.514-5.833S294.272,222.714,287.478,208.728z"/>
			<g>
				<path style="fill:#F886BC;" d="M282.508,212.125c-2.657-10.125-11.127-15.506-18.588-12.818
					c-6.432,2.318-7.734,9.818-5.885,19.693c1.849,9.875,1.391,23.212,1.391,23.212s-23.225-8.587-27.593-10.327
					c-4.478-3.811-10.005-7.792-10.941-7.792c-0.937,0-0.476,1.556,0.802,2.834c1.329,1.329,3.477,3.266,1.678,3.109
					c-1.356-0.119-10.207-9.021-10.207-9.021c-0.744,0.744,0.135,2.814,0.135,2.814s0.137,3.411,2.907,6.56
					c19.235,21.865,41.888,37.093,56.199,31.874C285.883,257.348,283.455,215.732,282.508,212.125z"/>
				<g>
					<path style="fill:#D34F9B;" d="M219.901,231.132c0,0-0.544-0.308-1.287-0.881c-0.743-0.57-1.663-1.413-2.495-2.337
						c-0.831-0.925-1.574-1.925-2.068-2.718c-0.494-0.794-0.752-1.367-0.752-1.367s0.448,0.438,1.092,1.103
						c0.639,0.669,1.465,1.574,2.285,2.481c0.811,0.918,1.622,1.837,2.231,2.525c0.3,0.355,0.55,0.65,0.725,0.857
						C219.808,231.005,219.901,231.132,219.901,231.132z"/>
				</g>
				<path style="fill:#0070E4;" d="M284.334,213.792c-1.775-11.139-10.288-17.808-18.574-15.716
					c-7.143,1.803-9.335,9.708-8.399,20.493c0.274,3.162,0.546,6.646,0.794,9.992l26.163,3.081
					C284.866,222.763,284.574,215.301,284.334,213.792z"/>
				<path style="fill:none;stroke:#0E4099;stroke-width:0.75;stroke-miterlimit:10;" d="M284.317,231.642
					c0.549-8.879,0.257-16.342,0.017-17.85c-1.775-11.139-10.288-17.808-18.574-15.716c-7.143,1.803-9.335,9.708-8.399,20.493
					c0.274,3.162,0.546,6.646,0.794,9.992"/>
			</g>
		</g>
		<g>
			<g>
				<g>
					<g>
						<path style="fill:#00276F;" d="M466.25,400.989l2.116-0.996l12.974,27.57c0.629,1.337,1.915,2.245,3.385,2.391l0.153,0.216
							l-3.402,1.601c-0.127,0.059-0.271,0.069-0.404,0.025l-0.125-0.041c-0.85-0.276-1.547-0.891-1.928-1.699l-13.164-27.974
							C465.662,401.673,465.839,401.183,466.25,400.989z"/>
						<path style="fill:#F886BC;" d="M502.819,367.414l-24.029,28.899l-8.787,5.238l12.479,26.519
							c0.415,0.882,1.466,1.26,2.347,0.845l0,0c0.66-0.311,1.061-0.996,1.008-1.724l-1.276-17.604l26.321-21.639"/>
						<path style="fill:#FFAB37;" d="M485.771,408.254l0.554,19.856c0.023,0.821-0.508,1.62-1.336,2.009l0,0
							c-1.106,0.52-2.538-0.196-2.996-1.17l-13.626-28.956l10.763-3.882C479.129,396.111,478.094,402.791,485.771,408.254z"/>
						<path style="fill:none;stroke:#00276F;stroke-linecap:round;stroke-miterlimit:10;" d="M486.692,412.109
							c-1.639-0.366-3.321-0.539-5-0.515"/>
						<path style="fill:none;stroke:#00276F;stroke-linecap:round;stroke-miterlimit:10;" d="M486.414,414.77
							c-1.776-0.343-2.722-0.37-4.221-0.372"/>
						<path style="fill:none;stroke:#00276F;stroke-linecap:round;stroke-miterlimit:10;" d="M486.322,416.953
							c-1.179-0.245-2.661-0.264-3.864-0.321"/>
					</g>
					<path style="fill:#00224C;" d="M515.484,266.119l3.447,7.975c1.121,2.594,2.786,4.908,4.888,6.796
						c9.447,8.483,33.337,41.865,33.598,55.934c0.316,16.997-51.893,71.781-51.893,71.781l-20.384-22.872l41.04-48.965
						l-35.636-34.036c0,0-16.274-5.737-9.717-34.864"/>
					<path style="fill:none;stroke:#15489B;stroke-width:0.75;stroke-miterlimit:10;stroke-dasharray:2,1.5;" d="M491.14,385.622
						l38.419-47.756c1.406-1.545,1.22-3.955-0.405-5.267l-32.662-32.79c0,0-16.279-5.967-9.742-36.2"/>
					<path style="fill:none;stroke:#15489B;stroke-width:0.75;stroke-miterlimit:10;" d="M491.023,389.138l40.769-50.128
						c2.001-2.2,1.737-5.63-0.577-7.498c0,0-34.842-34.179-34.968-34.234c-1.731-0.749-12.331-6.812-6.194-35.198"/>
					<polygon style="fill:#15489B;" points="488.782,381.549 482.051,387.79 504.078,410.571 510.267,404.017 					"/>
				</g>
				<g>
					<g>
						<path style="fill:#00276F;" d="M531.131,439.233v-2.338h30.47c1.478,0,2.847-0.777,3.605-2.045l0.261-0.047v3.76
							c0,0.14-0.053,0.275-0.149,0.376l-0.09,0.096c-0.611,0.652-1.465,1.021-2.358,1.021h-30.916
							C531.5,440.056,531.131,439.688,531.131,439.233z"/>
						<path style="fill:#F886BC;" d="M519.659,396.435l12.581,29.46l0.998,10.181h29.309c0.974,0,1.764-0.79,1.764-1.764l0,0
							c0-0.73-0.449-1.384-1.13-1.646l-16.472-6.341l-8.372-33.03"/>
						<path style="fill:#FFAB37;" d="M546.016,424.664l18.202,7.954c0.753,0.329,1.249,1.15,1.249,2.065l0,0
							c0,1.222-1.258,2.212-2.335,2.212h-32.002l1.07-11.392C532.201,425.503,537.804,429.283,546.016,424.664z"/>
						<path style="fill:none;stroke:#00276F;stroke-linecap:round;stroke-miterlimit:10;" d="M549.896,425.471
							c-1.029,1.327-1.902,2.775-2.595,4.305"/>
						<path style="fill:none;stroke:#00276F;stroke-linecap:round;stroke-miterlimit:10;" d="M552.186,426.856
							c-1.067,1.461-1.494,2.305-2.134,3.661"/>
						<path style="fill:none;stroke:#00276F;stroke-linecap:round;stroke-miterlimit:10;" d="M554.122,427.869
							c-0.724,0.963-1.372,2.295-1.936,3.36"/>
					</g>
					<path style="fill:#00276F;" d="M469.081,271.5c0,0-1.283,18,6.645,35c7.928,17,39.989,115.731,39.989,115.731L544.154,410
						l-34.5-117.5c0,0-1.141-14.657-7.066-33.969"/>
					<path style="fill:none;stroke:#1B5ABF;stroke-width:0.75;stroke-miterlimit:10;" d="M523.681,418.806l-39.432-112.472
						c0,0-8.016-14-8.016-24.667"/>
					<path style="fill:none;stroke:#1B5ABF;stroke-width:0.75;stroke-miterlimit:10;stroke-dasharray:2,1.5;" d="M521.458,419.762
						L481.07,306.333c0,0-8.016-14-8.016-24.667"/>
					<polygon style="fill:#1B5ABF;" points="513.254,414.686 515.988,423.5 544.988,411.833 542.31,403.719 					"/>
				</g>
				<path style="fill:none;stroke:#1B5ABF;stroke-width:0.75;stroke-miterlimit:10;" d="M478.519,294.178
					c0,0,8.057-4.034,10.146-13.2"/>
				<path style="fill:none;stroke:#00276F;stroke-width:0.75;stroke-miterlimit:10;" d="M509.729,295.61c0,0,3.207-3.681,2.9-6.692
					c-0.846-8.291-2.9-18.793-2.9-18.793"/>
			</g>
			<g>
				<path style="fill:#F886BC;" d="M549.733,218.132l-7.121-7.234c0,0,6.662-16.729,7.409-16.567
					c1.531,0.331-1.225,7.442-1.225,7.442s3.907-7.609,4.454-7.108c0.978,0.897-1.835,8.687-1.835,8.687s3.406-7.533,4.072-6.738
					c0.666,0.796-2.438,12.487-2.438,12.487L549.733,218.132z"/>
				<path style="fill:#F886BC;" d="M541.248,211.678l1.329-2.576c0,0,0.416-4.397,1.545-7.606c1.129-3.209,1.961-4.753,2.555-4.753
					c0.594,0,0,4.991,0,4.991s1.023,4.292-0.462,7.084"/>
				<g>
					<path style="fill:#0A172B;" d="M550.147,210.704l-4.956-4.632c-0.214-0.187-0.287-0.506-0.178-0.781l5.628-14.786
						c0,0,0.255,0.064,0.444,0.111c0.103,0.026,0.224,0.052,0.315,0.131l5.425,4.728c0.214,0.187,0.287,0.506,0.178,0.781
						l-5.63,14.269c-0.083,0.211-0.265,0.335-0.456,0.348L550.147,210.704z"/>
					<path style="fill:#00276F;" d="M549.994,210.608l-5.367-4.677c-0.214-0.187-0.287-0.506-0.178-0.781l5.66-14.344
						c0.123-0.311,0.485-0.411,0.727-0.2l5.425,4.728c0.214,0.187,0.287,0.506,0.178,0.781l-5.63,14.269
						C550.671,210.732,550.265,210.844,549.994,210.608z"/>
					<polygon style="fill:#8DADE0;" points="544.853,204.124 551.122,209.587 556.048,197.103 549.779,191.64 					"/>
					<path style="fill:#8DADE0;" d="M547.654,207.456c-0.048,0.198-0.206,0.292-0.353,0.209c-0.146-0.083-0.225-0.31-0.177-0.508
						c0.049-0.198,0.206-0.292,0.353-0.209C547.623,207.03,547.703,207.258,547.654,207.456z"/>
					
						<line style="fill:none;stroke:#8DADE0;stroke-width:0.25;stroke-linecap:round;stroke-miterlimit:10;" x1="552.568" y1="193.017" x2="553.662" y2="193.992"/>
					<g>
						<path style="opacity:0.55;fill:#8DADE0;" d="M549.354,195.459c-0.046,0.188-0.196,0.276-0.334,0.198
							c-0.139-0.078-0.214-0.294-0.168-0.482c0.046-0.188,0.195-0.276,0.334-0.198C549.325,195.056,549.4,195.271,549.354,195.459z"
							/>
						<path style="opacity:0.51;fill:#FFFFFF;" d="M554.451,197.541l-3.303-2.878c-0.353-0.308-0.882-0.163-1.064,0.29l-0.405,1.049
							l-0.334,0.056l4.036,3.501c0.353,0.308,0.883,0.163,1.064-0.291l0.254-0.636C554.852,198.248,554.751,197.802,554.451,197.541
							z"/>
						
							<line style="fill:none;stroke:#8DADE0;stroke-width:0.25;stroke-linecap:round;stroke-miterlimit:10;" x1="550.724" y1="195.355" x2="554.054" y2="198.249"/>
						
							<line style="fill:none;stroke:#8DADE0;stroke-width:0.25;stroke-linecap:round;stroke-miterlimit:10;" x1="550.418" y1="196.149" x2="552.329" y2="197.809"/>
					</g>
					<g>
						<path style="opacity:0.55;fill:#8DADE0;" d="M546.136,203.126c-0.046,0.188-0.196,0.276-0.334,0.198
							c-0.138-0.078-0.214-0.294-0.168-0.482c0.046-0.188,0.196-0.276,0.334-0.198C546.107,202.722,546.182,202.938,546.136,203.126
							z"/>
						<path style="opacity:0.51;fill:#FFFFFF;" d="M551.234,205.207l-3.303-2.878c-0.353-0.308-0.882-0.163-1.064,0.291
							l-0.405,1.049l-0.334,0.056l4.036,3.501c0.353,0.308,0.883,0.163,1.064-0.29l0.254-0.636
							C551.634,205.915,551.533,205.468,551.234,205.207z"/>
						
							<line style="fill:none;stroke:#8DADE0;stroke-width:0.25;stroke-linecap:round;stroke-miterlimit:10;" x1="547.507" y1="203.022" x2="550.837" y2="205.915"/>
						
							<line style="fill:none;stroke:#8DADE0;stroke-width:0.25;stroke-linecap:round;stroke-miterlimit:10;" x1="547.201" y1="203.815" x2="549.112" y2="205.476"/>
					</g>
					<g>
						<path style="opacity:0.55;fill:#8DADE0;" d="M553.137,203.64c-0.046,0.188-0.195,0.276-0.334,0.198
							c-0.138-0.078-0.214-0.294-0.168-0.482s0.196-0.276,0.334-0.198C553.108,203.237,553.183,203.453,553.137,203.64z"/>
						<path style="opacity:0.51;fill:#FFFFFF;" d="M552.527,201.01l-3.573-3.114c-0.295-0.257-0.738-0.135-0.887,0.246l-0.388,0.992
							c-0.107,0.272-0.034,0.587,0.178,0.77l4.4,3.806l-0.113-0.529l0.558-1.398C552.81,201.51,552.739,201.194,552.527,201.01z"/>
						
							<line style="fill:none;stroke:#8DADE0;stroke-width:0.25;stroke-linecap:round;stroke-miterlimit:10;" x1="548.652" y1="198.695" x2="551.982" y2="201.589"/>
						
							<line style="fill:none;stroke:#8DADE0;stroke-width:0.25;stroke-linecap:round;stroke-miterlimit:10;" x1="548.346" y1="199.488" x2="550.257" y2="201.149"/>
						
							<line style="fill:none;stroke:#8DADE0;stroke-width:0.25;stroke-linecap:round;stroke-miterlimit:10;" x1="550.536" y1="201.42" x2="551.277" y2="202.064"/>
					</g>
					<g>
						<defs>
							<path id="SVGID_00000043448682708486988370000017723294996293757313_" d="M549.994,210.608l-5.367-4.677
								c-0.214-0.187-0.287-0.506-0.178-0.781l5.66-14.344c0.123-0.311,0.485-0.411,0.727-0.2l5.425,4.728
								c0.214,0.187,0.287,0.506,0.178,0.781l-5.63,14.269C550.671,210.732,550.265,210.844,549.994,210.608z"/>
						</defs>
						<clipPath id="SVGID_00000050647723798791134390000010503160107105206190_">
							<use xlink:href="#SVGID_00000043448682708486988370000017723294996293757313_"  style="overflow:visible;"/>
						</clipPath>
						
							<linearGradient id="SVGID_00000139991116062181018710000000358860719529980857_" gradientUnits="userSpaceOnUse" x1="549.4023" y1="201.7324" x2="559.1247" y2="184.8927" gradientTransform="matrix(-0.9735 -0.2288 0.2288 -0.9735 1045.8782 516.2875)">
							<stop  offset="0" style="stop-color:#FFFFFF;stop-opacity:0.6"/>
							<stop  offset="0.8878" style="stop-color:#FFFFFF;stop-opacity:0.1"/>
						</linearGradient>
						
							<polygon style="clip-path:url(#SVGID_00000050647723798791134390000010503160107105206190_);fill:url(#SVGID_00000139991116062181018710000000358860719529980857_);" points="
							556.182,193.249 557.42,194.476 544.883,209.315 543.645,208.088 						"/>
						
							<linearGradient id="SVGID_00000005973338276416421550000017583631388268722101_" gradientUnits="userSpaceOnUse" x1="550.3824" y1="203.3764" x2="560.0876" y2="186.5666" gradientTransform="matrix(-0.9735 -0.2288 0.2288 -0.9735 1045.8782 516.2875)">
							<stop  offset="0" style="stop-color:#FFFFFF;stop-opacity:0.6"/>
							<stop  offset="0.8878" style="stop-color:#FFFFFF;stop-opacity:0.1"/>
						</linearGradient>
						
							<polygon style="clip-path:url(#SVGID_00000050647723798791134390000010503160107105206190_);fill:url(#SVGID_00000005973338276416421550000017583631388268722101_);" points="
							556.08,191.872 556.389,192.179 543.852,207.018 543.544,206.711 						"/>
					</g>
				</g>
				<path style="fill:#F886BC;" d="M520.382,221.5l7.032,11.285l15.163-23.683c0,0,10.823,1.008,9.579,6.368
					c-6.013,15.183-10.908,38.251-22.733,39.42c-12.987,1.283-29.543-23-29.543-23"/>
				<path style="fill:none;stroke:#D34F9B;stroke-width:0.75;stroke-miterlimit:10;" d="M527.414,232.785
					c0,0-3.14,4.354-5.467,10.776"/>
				<path style="fill:#F886BC;" d="M550.927,218.493c0,0,4.363-10.63,4.898-12.65c0.535-2.02,1.926-7.594,1.035-7.594
					c-0.891,0-2.996,5.336-3.233,6.227c-1.782,0.951-4.309,2.674-4.278,5.764"/>
				<path style="fill:#6CA0FF;" d="M493.152,191.64c0,0,14.835,1.377,31.207,34.565c-3.208,4.666-19.871,14.522-24.479,14.433
					c-4.99-7.291-9.682-25.955-9.682-25.955"/>
			</g>
			<g>
				<path style="fill:#6CA0FF;" d="M507.789,220.759c-4.613-18.21-11.548-26.96-11.548-26.96l-15.224-4.369l-12.32,15.303
					c-12.383,37.635-0.544,79.023-0.544,79.023c8.535,3.642,43.886-3.763,52.506-12.383
					C520.659,271.373,511.676,236.103,507.789,220.759z"/>
				<path style="fill:none;stroke:#225BAF;stroke-width:0.75;stroke-miterlimit:10;" d="M511.567,235.829
					c0,0-6.457-28.677-9.769-34.086"/>
			</g>
			<g>
				<path style="fill:#F886BC;" d="M453.831,218.132c0,0-7.452,20.041-5.484,31.799c3.024,18.069,32.144,35.33,32.144,35.33
					s-0.986,4.863,1.073,7.167c5.118-3.825,6.767-8.466,6.767-8.466l-2.438-4.046c0,0-15.959-25.12-15.494-33.395
					c0.329-5.849,9.405-34.906,9.405-34.906"/>
				<path style="fill:#6CA0FF;" d="M481.017,189.43c0,0-16.171,4.531-23.025,16.801c-8.302,14.864-9.943,27.504-9.943,27.504
					c7.082,7.082,21.35,10.153,29.183,8.528l5.581-28.439"/>
				
					<line style="fill:none;stroke:#225BAF;stroke-width:0.75;stroke-miterlimit:10;" x1="477.232" y1="242.264" x2="482.374" y2="216.06"/>
			</g>
			<g>
				<path style="fill:#F886BC;" d="M497.778,181.188l-8.209-14.238l-6.441,11.365l0.428,2.611l-2.539,8.503
					c2.539,7.533,13.04,8.379,15.224,4.369L497.778,181.188"/>
				<path style="fill:#F886BC;" d="M505.021,162.089c1.343,5.066,1.7,22.274-2.367,24.088c-4.066,1.814-12.283,0.081-14.68-2.995
					c-2.081-2.668-4.048-16.98-0.307-20.469C491.408,159.223,503.138,154.986,505.021,162.089z"/>
				<g>
					<path style="fill:#00276F;" d="M492.596,165.415c3.827,0.657,7.159-0.4,10.129-1.365c2.971-0.965,5.762-2.848,7.202-5.619
						c1.201-2.312,1.281-5.566-1.646-6.843c-0.699-0.305-1.477-0.419-2.237-0.366c-2.445,0.17-4.377,1.652-6.23,3.094
						c0.771-3.835-6.482-2.075-7.986-0.695c-0.475,0.436-0.788,0.994-1.356,1.336c-1.719,1.033-3.91,1.099-5.736,1.894
						c-2.261,0.985-4.052,2.995-4.771,5.354c-0.599,1.966-1.334,5.243,0.272,7.613c0.765,1.129,1.514,2.367,1.726,3.714l1.273,5.468
						c0,0,2.571-1.843,2.85-2.064c1.012-0.805,1.389-1.839,2.198-2.82C490.354,171.603,491.758,167.984,492.596,165.415z"/>
				</g>
				<g>
					<path style="fill:#F886BC;" d="M490.07,172.831c-0.492-0.9-1.143-1.915-2.088-2.002c-0.489-0.045-0.955,0.188-1.309,0.525
						c-1.819,1.733-1.96,5.073-0.052,6.818c0.798,0.729,1.908,1.064,2.649,0.055l0.95-4.762
						C490.289,173.26,490.178,173.028,490.07,172.831z"/>
				</g>
				<path style="fill:none;stroke:#D34F9B;stroke-width:0.75;stroke-miterlimit:10;" d="M497.076,187.152
					c0,0-6.574-0.238-9.331-4.313"/>
				<path style="fill:none;stroke:#D34F9B;stroke-width:0.75;stroke-miterlimit:10;" d="M501.627,170.371
					c0,0,2.668,4.548,1.842,5.798s-3.016,0.501-3.016,0.501"/>
				<g>
					<path style="fill:#00276F;" d="M498.377,170.212c0.111,0.322,0.083,0.756,0.101,1.018c0.032,0.465-0.471,0.717-0.895,0.579
						c-0.789-0.255-0.643-2.12,0.332-2.005C498.168,169.834,498.303,169.998,498.377,170.212z"/>
				</g>
				<g>
					<path style="fill:#00276F;" d="M504.93,170.212c0.111,0.322,0.083,0.756,0.101,1.018c0.031,0.465-0.471,0.717-0.895,0.579
						c-0.789-0.255-0.643-2.12,0.332-2.005C504.72,169.834,504.856,169.998,504.93,170.212z"/>
				</g>
				<path style="fill:#FFFFFF;" d="M502.903,180.14l-6.755-1.926c0,0-0.268,5.146,3.816,5.911
					C502.447,184.59,502.903,180.14,502.903,180.14z"/>
				<g>
					<path style="fill:#00276F;" d="M498.907,167.721c-1.295,0.015-2.689,0.313-3.833,0.806c-0.13-0.07-0.466-0.686-0.271-1.049
						c0.154-0.286,2.185-0.991,4.023-0.949C498.826,166.529,499.161,167.556,498.907,167.721z"/>
				</g>
				<g>
					<path style="fill:#00276F;" d="M502.534,167.65c0.934,0.011,1.883,0.294,2.614,0.763c0.108-0.067,0.336-0.577,0.266-0.924
						c-0.055-0.274-1.386-0.945-2.724-0.9C502.691,166.59,502.382,167.493,502.534,167.65z"/>
				</g>
				<path style="fill:none;stroke:#D34F9B;stroke-width:0.75;stroke-miterlimit:10;" d="M485.814,177.139
					c0,0,1.333,1.992,3.121,1.435"/>
			</g>
		</g>
		<g>
			<g>
				<g>
					
						<line style="fill:none;stroke:#6CA0FF;stroke-linecap:round;stroke-linejoin:round;stroke-miterlimit:10;" x1="445.327" y1="262.626" x2="445.327" y2="267.25"/>
					
						<line style="fill:none;stroke:#6CA0FF;stroke-linecap:round;stroke-linejoin:round;stroke-miterlimit:10;" x1="447.639" y1="264.938" x2="443.015" y2="264.938"/>
				</g>
				<g>
					
						<line style="fill:none;stroke:#6CA0FF;stroke-linecap:round;stroke-linejoin:round;stroke-miterlimit:10;" x1="584.521" y1="236.757" x2="584.521" y2="241.381"/>
					
						<line style="fill:none;stroke:#6CA0FF;stroke-linecap:round;stroke-linejoin:round;stroke-miterlimit:10;" x1="586.833" y1="239.069" x2="582.209" y2="239.069"/>
				</g>
				<g>
					
						<line style="fill:none;stroke:#6CA0FF;stroke-linecap:round;stroke-linejoin:round;stroke-miterlimit:10;" x1="176.283" y1="134.595" x2="176.283" y2="139.219"/>
					
						<line style="fill:none;stroke:#6CA0FF;stroke-linecap:round;stroke-linejoin:round;stroke-miterlimit:10;" x1="178.596" y1="136.907" x2="173.971" y2="136.907"/>
				</g>
				<g>
					
						<line style="fill:none;stroke:#6CA0FF;stroke-linecap:round;stroke-linejoin:round;stroke-miterlimit:10;" x1="367.345" y1="46.064" x2="367.345" y2="50.688"/>
					
						<line style="fill:none;stroke:#6CA0FF;stroke-linecap:round;stroke-linejoin:round;stroke-miterlimit:10;" x1="369.657" y1="48.376" x2="365.033" y2="48.376"/>
				</g>
				<path style="fill:none;stroke:#6CA0FF;stroke-linecap:round;stroke-linejoin:round;stroke-miterlimit:10;" d="M341.157,66.62
					c0,1.219-0.989,2.208-2.208,2.208c-1.219,0-2.208-0.988-2.208-2.208c0-1.219,0.988-2.208,2.208-2.208
					C340.168,64.412,341.157,65.4,341.157,66.62z"/>
				<path style="fill:none;stroke:#6CA0FF;stroke-linecap:round;stroke-linejoin:round;stroke-miterlimit:10;" d="M407.74,122.163
					c0,1.219-0.989,2.208-2.208,2.208c-1.219,0-2.208-0.989-2.208-2.208s0.988-2.208,2.208-2.208
					C406.751,119.955,407.74,120.944,407.74,122.163z"/>
				
					<circle style="fill:none;stroke:#6CA0FF;stroke-linecap:round;stroke-linejoin:round;stroke-miterlimit:10;" cx="531.283" cy="186.45" r="2.208"/>
				<path style="fill:none;stroke:#6CA0FF;stroke-linecap:round;stroke-linejoin:round;stroke-miterlimit:10;" d="M137.48,313.922
					c0,1.219-0.989,2.208-2.208,2.208c-1.219,0-2.208-0.988-2.208-2.208c0-1.219,0.988-2.208,2.208-2.208
					C136.492,311.714,137.48,312.702,137.48,313.922z"/>
				
					<circle style="fill:none;stroke:#6CA0FF;stroke-linecap:round;stroke-linejoin:round;stroke-miterlimit:10;" cx="225.259" cy="272.125" r="2.208"/>
				<path style="fill:none;stroke:#6CA0FF;stroke-linecap:round;stroke-linejoin:round;stroke-miterlimit:10;" d="M158.184,122.163
					c0,1.219-0.988,2.208-2.208,2.208c-1.219,0-2.208-0.989-2.208-2.208s0.988-2.208,2.208-2.208
					C157.196,119.955,158.184,120.944,158.184,122.163z"/>
				<g>
					
						<line style="fill:none;stroke:#6CA0FF;stroke-linecap:round;stroke-linejoin:round;stroke-miterlimit:10;" x1="162.991" y1="258.243" x2="187.926" y2="258.243"/>
					
						<line style="fill:none;stroke:#6CA0FF;stroke-linecap:round;stroke-linejoin:round;stroke-miterlimit:10;" x1="195.522" y1="258.243" x2="206.65" y2="258.243"/>
				</g>
				<g>
					
						<line style="fill:none;stroke:#6CA0FF;stroke-linecap:round;stroke-linejoin:round;stroke-miterlimit:10;" x1="529.448" y1="171.924" x2="554.383" y2="171.924"/>
					
						<line style="fill:none;stroke:#6CA0FF;stroke-linecap:round;stroke-linejoin:round;stroke-miterlimit:10;" x1="561.979" y1="171.924" x2="573.107" y2="171.924"/>
				</g>
				<g>
					
						<line style="fill:none;stroke:#6CA0FF;stroke-linecap:round;stroke-linejoin:round;stroke-miterlimit:10;" x1="418.999" y1="50.688" x2="443.934" y2="50.688"/>
					
						<line style="fill:none;stroke:#6CA0FF;stroke-linecap:round;stroke-linejoin:round;stroke-miterlimit:10;" x1="451.53" y1="50.688" x2="462.658" y2="50.688"/>
				</g>
				<g>
					
						<line style="fill:none;stroke:#6CA0FF;stroke-linecap:round;stroke-linejoin:round;stroke-miterlimit:10;" x1="291.872" y1="63.505" x2="274.936" y2="63.505"/>
					
						<line style="fill:none;stroke:#6CA0FF;stroke-linecap:round;stroke-linejoin:round;stroke-miterlimit:10;" x1="269.341" y1="63.505" x2="260.212" y2="63.505"/>
				</g>
				<g>
					
						<line style="fill:none;stroke:#6CA0FF;stroke-linecap:round;stroke-linejoin:round;stroke-miterlimit:10;" x1="224.819" y1="162.745" x2="203.883" y2="162.745"/>
					
						<line style="fill:none;stroke:#6CA0FF;stroke-linecap:round;stroke-linejoin:round;stroke-miterlimit:10;" x1="200.288" y1="162.745" x2="193.16" y2="162.745"/>
				</g>
				
					<line style="fill:none;stroke:#6CA0FF;stroke-linecap:round;stroke-linejoin:round;stroke-miterlimit:10;" x1="214.899" y1="171.924" x2="233.126" y2="171.924"/>
				
					<line style="fill:none;stroke:#6CA0FF;stroke-linecap:round;stroke-linejoin:round;stroke-miterlimit:10;" x1="567.979" y1="165.26" x2="586.207" y2="165.26"/>
				
					<line style="fill:none;stroke:#6CA0FF;stroke-linecap:round;stroke-linejoin:round;stroke-miterlimit:10;" x1="401.462" y1="68.562" x2="419.69" y2="68.562"/>
				
					<line style="fill:none;stroke:#6CA0FF;stroke-linecap:round;stroke-linejoin:round;stroke-miterlimit:10;" x1="597.086" y1="281.753" x2="615.314" y2="281.753"/>
			</g>
			<g>
				<g>
					<path style="fill:#FF5A89;" d="M177.248,207.961c-0.438-2.799-2.701-5.093-5.494-5.569c-3.188-0.542-6.026,1.158-7.27,3.764
						c-1.244-2.606-4.082-4.306-7.27-3.763c-2.793,0.475-5.056,2.77-5.494,5.569c-0.359,2.294,0.436,4.416,1.895,5.874l9.631,9.631
						c0.684,0.684,1.792,0.684,2.476,0l9.631-9.631C176.812,212.378,177.607,210.255,177.248,207.961z"/>
				</g>
				<g>
					
						<line style="fill:none;stroke:#6CA0FF;stroke-linecap:round;stroke-linejoin:round;stroke-miterlimit:10;" x1="164.484" y1="189.356" x2="164.484" y2="193.146"/>
					
						<line style="fill:none;stroke:#6CA0FF;stroke-linecap:round;stroke-linejoin:round;stroke-miterlimit:10;" x1="164.484" y1="230.029" x2="164.484" y2="233.819"/>
					
						<line style="fill:none;stroke:#6CA0FF;stroke-linecap:round;stroke-linejoin:round;stroke-miterlimit:10;" x1="186.715" y1="211.587" x2="182.925" y2="211.587"/>
					
						<line style="fill:none;stroke:#6CA0FF;stroke-linecap:round;stroke-linejoin:round;stroke-miterlimit:10;" x1="146.043" y1="211.587" x2="142.253" y2="211.587"/>
					
						<line style="fill:none;stroke:#6CA0FF;stroke-linecap:round;stroke-linejoin:round;stroke-miterlimit:10;" x1="148.764" y1="195.867" x2="151.444" y2="198.548"/>
					
						<line style="fill:none;stroke:#6CA0FF;stroke-linecap:round;stroke-linejoin:round;stroke-miterlimit:10;" x1="177.524" y1="224.627" x2="180.204" y2="227.307"/>
					
						<line style="fill:none;stroke:#6CA0FF;stroke-linecap:round;stroke-linejoin:round;stroke-miterlimit:10;" x1="180.204" y1="195.867" x2="177.524" y2="198.548"/>
					
						<line style="fill:none;stroke:#6CA0FF;stroke-linecap:round;stroke-linejoin:round;stroke-miterlimit:10;" x1="151.444" y1="224.627" x2="148.764" y2="227.307"/>
					
						<line style="fill:none;stroke:#6CA0FF;stroke-linecap:round;stroke-linejoin:round;stroke-miterlimit:10;" x1="155.976" y1="191.048" x2="157.427" y2="194.55"/>
					
						<line style="fill:none;stroke:#6CA0FF;stroke-linecap:round;stroke-linejoin:round;stroke-miterlimit:10;" x1="171.541" y1="228.625" x2="172.992" y2="232.126"/>
					
						<line style="fill:none;stroke:#6CA0FF;stroke-linecap:round;stroke-linejoin:round;stroke-miterlimit:10;" x1="185.023" y1="203.08" x2="181.521" y2="204.53"/>
					
						<line style="fill:none;stroke:#6CA0FF;stroke-linecap:round;stroke-linejoin:round;stroke-miterlimit:10;" x1="147.447" y1="218.645" x2="143.945" y2="220.095"/>
					
						<line style="fill:none;stroke:#6CA0FF;stroke-linecap:round;stroke-linejoin:round;stroke-miterlimit:10;" x1="143.945" y1="203.08" x2="147.447" y2="204.53"/>
					
						<line style="fill:none;stroke:#6CA0FF;stroke-linecap:round;stroke-linejoin:round;stroke-miterlimit:10;" x1="181.521" y1="218.645" x2="185.023" y2="220.095"/>
					
						<line style="fill:none;stroke:#6CA0FF;stroke-linecap:round;stroke-linejoin:round;stroke-miterlimit:10;" x1="172.992" y1="191.048" x2="171.541" y2="194.55"/>
					
						<line style="fill:none;stroke:#6CA0FF;stroke-linecap:round;stroke-linejoin:round;stroke-miterlimit:10;" x1="157.427" y1="228.625" x2="155.976" y2="232.126"/>
				</g>
			</g>
			<g>
				<g>
					<path style="fill:#FF5A89;" d="M580.743,270.707c-0.438-2.799-2.701-5.093-5.494-5.569c-3.188-0.542-6.026,1.158-7.27,3.764
						c-1.244-2.606-4.082-4.306-7.27-3.763c-2.793,0.475-5.056,2.77-5.494,5.569c-0.359,2.294,0.436,4.416,1.895,5.875l9.631,9.631
						c0.684,0.684,1.792,0.684,2.476,0l9.631-9.631C580.307,275.123,581.102,273.001,580.743,270.707z"/>
				</g>
				<g>
					
						<line style="fill:none;stroke:#6CA0FF;stroke-linecap:round;stroke-linejoin:round;stroke-miterlimit:10;" x1="567.979" y1="252.102" x2="567.979" y2="255.892"/>
					
						<line style="fill:none;stroke:#6CA0FF;stroke-linecap:round;stroke-linejoin:round;stroke-miterlimit:10;" x1="567.979" y1="292.774" x2="567.979" y2="296.564"/>
					
						<line style="fill:none;stroke:#6CA0FF;stroke-linecap:round;stroke-linejoin:round;stroke-miterlimit:10;" x1="590.211" y1="274.333" x2="586.421" y2="274.333"/>
					
						<line style="fill:none;stroke:#6CA0FF;stroke-linecap:round;stroke-linejoin:round;stroke-miterlimit:10;" x1="549.538" y1="274.333" x2="545.748" y2="274.333"/>
					
						<line style="fill:none;stroke:#6CA0FF;stroke-linecap:round;stroke-linejoin:round;stroke-miterlimit:10;" x1="552.259" y1="258.613" x2="554.939" y2="261.293"/>
					
						<line style="fill:none;stroke:#6CA0FF;stroke-linecap:round;stroke-linejoin:round;stroke-miterlimit:10;" x1="581.019" y1="287.373" x2="583.699" y2="290.053"/>
					
						<line style="fill:none;stroke:#6CA0FF;stroke-linecap:round;stroke-linejoin:round;stroke-miterlimit:10;" x1="583.699" y1="258.613" x2="581.019" y2="261.293"/>
					
						<line style="fill:none;stroke:#6CA0FF;stroke-linecap:round;stroke-linejoin:round;stroke-miterlimit:10;" x1="554.939" y1="287.373" x2="552.259" y2="290.053"/>
					
						<line style="fill:none;stroke:#6CA0FF;stroke-linecap:round;stroke-linejoin:round;stroke-miterlimit:10;" x1="559.472" y1="253.794" x2="560.922" y2="257.295"/>
					
						<line style="fill:none;stroke:#6CA0FF;stroke-linecap:round;stroke-linejoin:round;stroke-miterlimit:10;" x1="575.036" y1="291.37" x2="576.487" y2="294.872"/>
					
						<line style="fill:none;stroke:#6CA0FF;stroke-linecap:round;stroke-linejoin:round;stroke-miterlimit:10;" x1="588.518" y1="265.825" x2="585.017" y2="267.276"/>
					
						<line style="fill:none;stroke:#6CA0FF;stroke-linecap:round;stroke-linejoin:round;stroke-miterlimit:10;" x1="550.942" y1="281.39" x2="547.44" y2="282.84"/>
					
						<line style="fill:none;stroke:#6CA0FF;stroke-linecap:round;stroke-linejoin:round;stroke-miterlimit:10;" x1="547.44" y1="265.825" x2="550.942" y2="267.276"/>
					
						<line style="fill:none;stroke:#6CA0FF;stroke-linecap:round;stroke-linejoin:round;stroke-miterlimit:10;" x1="585.017" y1="281.39" x2="588.518" y2="282.84"/>
					
						<line style="fill:none;stroke:#6CA0FF;stroke-linecap:round;stroke-linejoin:round;stroke-miterlimit:10;" x1="576.487" y1="253.794" x2="575.036" y2="257.295"/>
					
						<line style="fill:none;stroke:#6CA0FF;stroke-linecap:round;stroke-linejoin:round;stroke-miterlimit:10;" x1="560.922" y1="291.37" x2="559.472" y2="294.872"/>
				</g>
			</g>
			<g>
				<g>
					<path style="fill:#FF5A89;" d="M510.323,77.767c-0.289-1.845-1.78-3.357-3.621-3.67c-2.101-0.358-3.971,0.763-4.791,2.48
						c-0.82-1.718-2.69-2.838-4.792-2.48c-1.841,0.313-3.332,1.826-3.621,3.671c-0.237,1.512,0.288,2.91,1.249,3.872l6.348,6.348
						c0.451,0.451,1.181,0.451,1.632,0l6.348-6.348C510.035,80.678,510.56,79.279,510.323,77.767z"/>
				</g>
				<g>
					
						<line style="fill:none;stroke:#6CA0FF;stroke-linecap:round;stroke-linejoin:round;stroke-miterlimit:10;" x1="501.911" y1="65.505" x2="501.911" y2="68.003"/>
					
						<line style="fill:none;stroke:#6CA0FF;stroke-linecap:round;stroke-linejoin:round;stroke-miterlimit:10;" x1="501.911" y1="92.311" x2="501.911" y2="94.809"/>
					
						<line style="fill:none;stroke:#6CA0FF;stroke-linecap:round;stroke-linejoin:round;stroke-miterlimit:10;" x1="516.563" y1="80.157" x2="514.065" y2="80.157"/>
					
						<line style="fill:none;stroke:#6CA0FF;stroke-linecap:round;stroke-linejoin:round;stroke-miterlimit:10;" x1="489.756" y1="80.157" x2="487.258" y2="80.157"/>
					
						<line style="fill:none;stroke:#6CA0FF;stroke-linecap:round;stroke-linejoin:round;stroke-miterlimit:10;" x1="491.55" y1="69.796" x2="493.316" y2="71.562"/>
					
						<line style="fill:none;stroke:#6CA0FF;stroke-linecap:round;stroke-linejoin:round;stroke-miterlimit:10;" x1="510.505" y1="88.751" x2="512.271" y2="90.518"/>
					
						<line style="fill:none;stroke:#6CA0FF;stroke-linecap:round;stroke-linejoin:round;stroke-miterlimit:10;" x1="512.271" y1="69.796" x2="510.505" y2="71.562"/>
					
						<line style="fill:none;stroke:#6CA0FF;stroke-linecap:round;stroke-linejoin:round;stroke-miterlimit:10;" x1="493.316" y1="88.751" x2="491.55" y2="90.518"/>
					
						<line style="fill:none;stroke:#6CA0FF;stroke-linecap:round;stroke-linejoin:round;stroke-miterlimit:10;" x1="496.303" y1="66.62" x2="497.259" y2="68.928"/>
					
						<line style="fill:none;stroke:#6CA0FF;stroke-linecap:round;stroke-linejoin:round;stroke-miterlimit:10;" x1="506.562" y1="91.386" x2="507.518" y2="93.694"/>
					
						<line style="fill:none;stroke:#6CA0FF;stroke-linecap:round;stroke-linejoin:round;stroke-miterlimit:10;" x1="515.448" y1="74.55" x2="513.14" y2="75.506"/>
					
						<line style="fill:none;stroke:#6CA0FF;stroke-linecap:round;stroke-linejoin:round;stroke-miterlimit:10;" x1="490.681" y1="84.808" x2="488.374" y2="85.764"/>
					
						<line style="fill:none;stroke:#6CA0FF;stroke-linecap:round;stroke-linejoin:round;stroke-miterlimit:10;" x1="488.374" y1="74.55" x2="490.681" y2="75.506"/>
					
						<line style="fill:none;stroke:#6CA0FF;stroke-linecap:round;stroke-linejoin:round;stroke-miterlimit:10;" x1="513.14" y1="84.808" x2="515.448" y2="85.764"/>
					
						<line style="fill:none;stroke:#6CA0FF;stroke-linecap:round;stroke-linejoin:round;stroke-miterlimit:10;" x1="507.518" y1="66.62" x2="506.562" y2="68.928"/>
					
						<line style="fill:none;stroke:#6CA0FF;stroke-linecap:round;stroke-linejoin:round;stroke-miterlimit:10;" x1="497.259" y1="91.386" x2="496.303" y2="93.694"/>
				</g>
			</g>
			<g>
				<g>
					<circle style="fill:#D2E4FF;" cx="319.775" cy="319.239" r="14.301"/>
					<g>
						<path style="fill:#EA3974;" d="M335.477,324.714c0.308-0.932-0.025-1.997-0.811-2.586c-0.896-0.672-2.04-0.598-2.836,0.008
							c0.029-1-0.576-1.974-1.644-2.311c-0.936-0.296-1.997,0.053-2.575,0.846c-0.474,0.65-0.565,1.43-0.347,2.111l1.442,4.493
							c0.102,0.319,0.444,0.495,0.763,0.392l4.493-1.442C334.643,326.006,335.224,325.478,335.477,324.714z"/>
					</g>
				</g>
				<ellipse style="fill:#6CA0FF;" cx="314.818" cy="319.244" rx="1.322" ry="2.181"/>
				<g>
					<path style="fill:#6CA0FF;" d="M311.348,315.746c-0.071,0-0.145-0.015-0.213-0.047c-0.25-0.118-0.357-0.416-0.239-0.666
						c0.06-0.126,1.5-3.097,5.244-3.097c0.276,0,0.5,0.224,0.5,0.5c0,0.276-0.224,0.5-0.5,0.5c-3.116,0-4.328,2.497-4.34,2.522
						C311.715,315.64,311.535,315.746,311.348,315.746z"/>
				</g>
				<g>
					<path style="fill:#6CA0FF;" d="M328.875,316.567c-0.14,0-0.279-0.058-0.378-0.172c-0.075-0.086-1.878-2.103-4.856-1.272
						c-0.27,0.073-0.542-0.082-0.615-0.348c-0.074-0.266,0.082-0.542,0.348-0.616c3.606-0.999,5.791,1.478,5.881,1.583
						c0.18,0.209,0.156,0.523-0.052,0.704C329.108,316.527,328.991,316.567,328.875,316.567z"/>
				</g>
				<g>
					<path style="fill:#6CA0FF;" d="M323.694,319.739c-0.104,0-0.208-0.032-0.297-0.098c-0.223-0.164-0.27-0.477-0.105-0.699
						c1.489-2.017,3.689-1.375,4.643-0.754c0.232,0.15,0.296,0.458,0.147,0.689c-0.148,0.232-0.457,0.298-0.69,0.149
						c-0.202-0.13-2.02-1.217-3.295,0.509C323.997,319.668,323.847,319.739,323.694,319.739z"/>
				</g>
				<g>
					<path style="fill:#6CA0FF;" d="M320.328,329.003c-0.147,0-0.293-0.065-0.392-0.189c-0.172-0.216-0.136-0.531,0.081-0.703
						l1.452-1.154l-0.918-0.393c-0.153-0.066-0.264-0.203-0.294-0.367c-0.031-0.164,0.022-0.332,0.142-0.449l0.925-0.908
						l-1.729-0.667c-0.258-0.099-0.386-0.389-0.287-0.646c0.1-0.258,0.389-0.388,0.646-0.287l2.455,0.946
						c0.159,0.061,0.275,0.199,0.31,0.365c0.035,0.167-0.018,0.339-0.14,0.458l-0.947,0.929l1.003,0.429
						c0.161,0.069,0.275,0.219,0.298,0.393c0.023,0.174-0.046,0.349-0.185,0.458l-2.109,1.675
						C320.547,328.968,320.438,329.003,320.328,329.003z"/>
				</g>
			</g>
			<g>
				<g>
					<g>
						<circle style="fill:#D2E4FF;" cx="410.138" cy="209.102" r="18.197"/>
					</g>
				</g>
				<g>
					<path style="fill:#6CA0FF;" d="M410.138,219.516c-3.153,0-4.494-2.403-4.764-3.675c-0.085-0.391,0.167-0.777,0.559-0.861
						c0.406-0.082,0.777,0.169,0.859,0.56c0.023,0.099,0.598,2.524,3.346,2.524c2.779,0,3.326-2.422,3.349-2.525
						c0.082-0.389,0.462-0.635,0.859-0.559c0.394,0.084,0.644,0.469,0.559,0.862C414.635,217.113,413.288,219.516,410.138,219.516z"
						/>
				</g>
				<g>
					<g>
						<g>
							<path style="fill:#6CA0FF;" d="M399.195,205.01c-0.224,0-0.445-0.102-0.587-0.298c-0.235-0.323-0.164-0.776,0.159-1.012
								c1.557-1.144,5.391-2.622,8.697-0.031c0.315,0.247,0.371,0.703,0.125,1.019c-0.252,0.313-0.706,0.37-1.021,0.123
								c-3.261-2.552-6.794-0.048-6.944,0.061C399.493,204.966,399.346,205.01,399.195,205.01z"/>
						</g>
						<g>
							<path style="fill:#6CA0FF;" d="M405.791,209.827c-0.221,0-0.442-0.102-0.584-0.295c-1.574-2.13-3.822-0.783-4.072-0.625
								c-0.34,0.215-0.788,0.119-1.004-0.217c-0.216-0.336-0.122-0.783,0.213-1.001c1.242-0.808,4.092-1.639,6.031,0.981
								c0.238,0.322,0.17,0.777-0.153,1.015C406.091,209.781,405.941,209.827,405.791,209.827z"/>
						</g>
					</g>
					<g>
						<g>
							<path style="fill:#6CA0FF;" d="M421.08,205.01c-0.15,0-0.298-0.044-0.428-0.138c-0.15-0.109-3.681-2.613-6.944-0.061
								c-0.318,0.247-0.774,0.19-1.021-0.123c-0.247-0.316-0.19-0.773,0.125-1.019c3.312-2.588,7.14-1.112,8.697,0.031
								c0.323,0.237,0.394,0.689,0.159,1.012C421.525,204.908,421.304,205.01,421.08,205.01z"/>
						</g>
						<g>
							<path style="fill:#6CA0FF;" d="M414.485,209.827c-0.15,0-0.3-0.047-0.431-0.142c-0.323-0.238-0.391-0.693-0.153-1.015
								c1.937-2.62,4.792-1.789,6.034-0.981c0.335,0.217,0.428,0.665,0.213,1.001c-0.216,0.335-0.664,0.437-1.004,0.217
								c-0.252-0.16-2.504-1.508-4.075,0.625C414.927,209.725,414.706,209.827,414.485,209.827z"/>
						</g>
					</g>
				</g>
			</g>
			<g>
				<path style="fill:#FFFFFF;stroke:#6CA0FF;stroke-linecap:round;stroke-linejoin:round;stroke-miterlimit:10;" d="
					M304.204,91.849h-83.335c-14.293,0-25.879,11.587-25.879,25.879v0c0,14.293,11.587,25.879,25.879,25.879h7.43l4.66,6.021
					l4.66-6.021h66.586c14.293,0,25.879-11.587,25.879-25.879v0C330.083,103.436,318.497,91.849,304.204,91.849z"/>
				<g>
					<circle style="fill:#E6EFFC;" cx="219.244" cy="117.729" r="16.014"/>
					
						<ellipse transform="matrix(0.2298 -0.9732 0.9732 0.2298 54.2929 304.0594)" style="fill:#FF5A89;" cx="219.244" cy="117.729" rx="12.324" ry="12.324"/>
				</g>
				<g>
					<defs>
						
							<ellipse id="SVGID_00000096047221787515112440000011477845893953536918_" transform="matrix(0.2298 -0.9732 0.9732 0.2298 54.2929 304.0594)" cx="219.244" cy="117.729" rx="12.324" ry="12.324"/>
					</defs>
					<clipPath id="SVGID_00000037686085998404464490000007482987840459265178_">
						<use xlink:href="#SVGID_00000096047221787515112440000011477845893953536918_"  style="overflow:visible;"/>
					</clipPath>
					<g style="clip-path:url(#SVGID_00000037686085998404464490000007482987840459265178_);">
						<g>
							<path style="fill:#00276F;" d="M214.329,109.933c2.519-2.3,7.375-2.861,9.311-0.068c0.861,1.242,1.041,2.975,2.179,3.949
								c0.382,0.327,0.859,0.553,1.142,0.975c0.471,0.702,0.237,1.663-0.075,2.455c-0.311,0.792-0.69,1.648-0.452,2.467
								c0.168,0.577,0.636,1.092,0.551,1.688c-0.115,0.806-1.095,1.075-1.881,1.133c-0.639,0.047-1.282,0.075-1.921,0.029
								c-0.981-0.071-1.953-0.314-2.935-0.272c-1.203,0.052-2.347,0.528-3.528,0.771c-1.271,0.261-2.593,0.249-3.859-0.036
								c-0.756-0.17-1.621-0.594-1.697-1.39c-0.051-0.543,0.302-1.048,0.318-1.594c0.027-0.921-0.889-1.647-0.893-2.569
								c-0.004-1.08,1.174-1.705,1.692-2.644c0.457-0.828,0.368-1.857,0.645-2.767C213.174,111.252,213.672,110.533,214.329,109.933
								z"/>
						</g>
						<g>
							<path style="fill:#0070E4;" d="M206.033,128.832c4.064-4.651,10.123-4.55,10.123-4.55l5.982-0.101
								c0,0,5.326,0.701,8.529,3.324c9.586,7.852,7.994,21.642,7.994,21.642s-38.877-8.416-38.932-8.69
								S203.319,131.938,206.033,128.832z"/>
							<path style="fill:#F886BC;" d="M222.826,112.827c1.21,4.882-0.989,8.527-2.874,8.811c-2.697,0.405-4.204-0.92-4.999-3.326
								c-0.351-1.063-0.871-5.085,0.25-6.266C217.065,110.085,221.796,108.67,222.826,112.827z"/>
							<path style="fill:#F886BC;" d="M216.467,119.363l-0.274,4.489c0,0-0.629,2.41,3.062,2.41c3.691,0,2.801-2.41,2.801-2.41
								l-0.603-4.973"/>
						</g>
						<g>
							<path style="fill:#F886BC;" d="M215.139,116.513c-0.227-0.253-0.723-0.298-1.011-0.092c-0.25,0.179-0.314,0.478-0.33,0.752
								c-0.016,0.264-0.001,0.533,0.105,0.782c0.106,0.249,0.314,0.476,0.604,0.584c0.29,0.108,0.663,0.076,0.884-0.113"/>
						</g>
						<g>
							<path style="fill:#F886BC;" d="M222.667,116.513c0.227-0.253,0.723-0.298,1.011-0.092c0.25,0.179,0.314,0.478,0.331,0.752
								c0.016,0.264,0.001,0.533-0.105,0.782c-0.106,0.249-0.314,0.476-0.604,0.584s-0.663,0.076-0.885-0.113"/>
						</g>
						<g>
							<path style="fill:#00276F;" d="M213.684,115.881c2.298-0.49,4.403-1.833,5.815-3.71c1.215,1.486,2.815,2.655,4.601,3.36
								c0.145-1.203,0.279-2.482-0.241-3.576c-0.361-0.758-0.998-1.342-1.629-1.895c-0.54-0.474-1.102-0.949-1.775-1.203
								c-1.291-0.487-2.777-0.06-3.914,0.721c-1.606,1.104-2.706,2.915-2.946,4.849"/>
						</g>
						<g>
							<path style="fill:#00276F;" d="M220.146,108.623c-0.124,0.073-0.272-0.045-0.367-0.154c-0.37-0.424-0.758-0.965-0.586-1.501
								c0.079-0.245,0.268-0.441,0.479-0.589c0.499-0.35,1.177-0.461,1.737-0.219c0.56,0.242,0.955,0.859,0.871,1.463
								c-0.083,0.604-0.689,1.107-1.292,1.016"/>
						</g>
						
							<path style="fill:none;stroke:#D34F9B;stroke-width:0.5;stroke-linecap:round;stroke-linejoin:round;stroke-miterlimit:10;" d="
							M216.603,121.031c0,0,0.777,1.093,2.187,1.192c1.814,0.127,2.599-1.54,2.599-1.54"/>
						
							<path style="fill:none;stroke:#D34F9B;stroke-width:0.5;stroke-linecap:round;stroke-linejoin:round;stroke-miterlimit:10;" d="
							M219.25,118.928c0,0-0.805,0.173-0.805-0.328c0-0.501,0.251-2.719,0.251-2.719"/>
						<g>
							<g>
								<path style="fill:#00276F;" d="M220.679,116.365c-0.015,0.141-0.018,0.268-0.01,0.409c0.03,0.564,0.859,0.47,0.775-0.105
									c-0.02-0.139-0.047-0.262-0.09-0.396C221.231,115.887,220.719,115.988,220.679,116.365L220.679,116.365z"/>
							</g>
						</g>
						
							<path style="fill:none;stroke:#00276F;stroke-width:0.5;stroke-linecap:round;stroke-linejoin:round;stroke-miterlimit:10;" d="
							M220.334,115.291c0,0,0.631-0.473,1.641,0.126"/>
						<g>
							<g>
								<path style="fill:#00276F;" d="M216.404,116.273c-0.043,0.134-0.07,0.257-0.09,0.396c-0.083,0.567,0.744,0.678,0.775,0.105
									c0.007-0.141,0.005-0.269-0.01-0.409C217.038,115.991,216.528,115.884,216.404,116.273L216.404,116.273z"/>
							</g>
						</g>
						
							<path style="fill:none;stroke:#00276F;stroke-width:0.5;stroke-linecap:round;stroke-linejoin:round;stroke-miterlimit:10;" d="
							M217.423,115.291c0,0-0.631-0.473-1.641,0.126"/>
						<path style="fill:#FFFFFF;" d="M217.684,119.614h2.65c0,0-0.373,1.368-1.338,1.368
							C218.031,120.982,217.684,119.614,217.684,119.614z"/>
					</g>
				</g>
				<g>
					
						<line style="fill:none;stroke:#E6EFFC;stroke-width:3;stroke-linecap:round;stroke-linejoin:round;stroke-miterlimit:10;" x1="241.187" y1="104.425" x2="313.516" y2="104.425"/>
					
						<line style="fill:none;stroke:#E6EFFC;stroke-width:3;stroke-linecap:round;stroke-linejoin:round;stroke-miterlimit:10;" x1="241.187" y1="113.294" x2="313.516" y2="113.294"/>
					
						<line style="fill:none;stroke:#E6EFFC;stroke-width:3;stroke-linecap:round;stroke-linejoin:round;stroke-miterlimit:10;" x1="299.059" y1="122.163" x2="313.516" y2="122.163"/>
					
						<line style="fill:none;stroke:#E6EFFC;stroke-width:3;stroke-linecap:round;stroke-linejoin:round;stroke-miterlimit:10;" x1="241.187" y1="122.163" x2="290.831" y2="122.163"/>
					
						<line style="fill:none;stroke:#E6EFFC;stroke-width:3;stroke-linecap:round;stroke-linejoin:round;stroke-miterlimit:10;" x1="241.187" y1="131.033" x2="279.458" y2="131.033"/>
				</g>
			</g>
			<g>
				<path style="fill:#FFFFFF;stroke:#6CA0FF;stroke-linecap:round;stroke-linejoin:round;stroke-miterlimit:10;" d="
					M366.861,127.042h83.335c14.293,0,25.879,11.587,25.879,25.879v0c0,14.293-11.587,25.879-25.879,25.879h-3.55l-4.66,6.021
					l-4.66-6.021h-70.466c-14.293,0-25.879-11.587-25.879-25.879v0C340.982,138.628,352.569,127.042,366.861,127.042z"/>
				<g>
					<circle style="fill:#E6EFFC;" cx="451.821" cy="152.921" r="16.014"/>
					
						<ellipse transform="matrix(0.973 -0.231 0.231 0.973 -23.1034 108.4928)" style="fill:#FF5A89;" cx="451.821" cy="152.921" rx="12.324" ry="12.324"/>
				</g>
				<g>
					<defs>
						
							<ellipse id="SVGID_00000074402930937884970580000005211558715275186818_" transform="matrix(0.973 -0.231 0.231 0.973 -23.1034 108.4928)" cx="451.821" cy="152.921" rx="12.324" ry="12.324"/>
					</defs>
					<clipPath id="SVGID_00000041256671670691053180000017883209485778945463_">
						<use xlink:href="#SVGID_00000074402930937884970580000005211558715275186818_"  style="overflow:visible;"/>
					</clipPath>
					<g style="clip-path:url(#SVGID_00000041256671670691053180000017883209485778945463_);">
						<path style="fill:#0070E4;" d="M465.033,164.025c-4.064-4.651-10.123-4.55-10.123-4.55l-5.982-0.101
							c0,0-5.326,0.701-8.529,3.324c-9.586,7.852-7.994,21.642-7.994,21.642s38.877-8.416,38.932-8.69
							C471.391,175.376,467.746,167.131,465.033,164.025z"/>
						<path style="fill:#F886BC;" d="M447.842,148.02c-1.21,4.882,0.989,8.527,2.874,8.811c2.697,0.406,4.204-0.92,4.999-3.326
							c0.351-1.063,0.871-5.085-0.25-6.266C453.603,145.278,448.873,143.863,447.842,148.02z"/>
						<path style="fill:#F886BC;" d="M455.105,154.478l0.061,4.489c0,0,0.711,2.41-3.461,2.41c-4.173,0-3.167-2.41-3.167-2.41
							l0.071-4.973"/>
						<g>
							<path style="fill:#F886BC;" d="M455.6,151.705c0.227-0.253,0.723-0.298,1.011-0.092c0.25,0.179,0.314,0.478,0.33,0.752
								c0.016,0.264,0.001,0.533-0.105,0.782c-0.106,0.249-0.314,0.476-0.604,0.584c-0.29,0.108-0.663,0.076-0.884-0.113"/>
						</g>
						
							<path style="fill:none;stroke:#D34F9B;stroke-width:0.5;stroke-linecap:round;stroke-linejoin:round;stroke-miterlimit:10;" d="
							M454.899,156.223c0,0-0.968,1.094-2.721,1.192c-2.258,0.127-3.235-1.54-3.235-1.54"/>
						
							<path style="fill:none;stroke:#D34F9B;stroke-width:0.5;stroke-linecap:round;stroke-linejoin:round;stroke-miterlimit:10;" d="
							M451.45,153.203c0,0,0.805,0.153,0.805-0.29c0-0.443-0.251-2.404-0.251-2.404"/>
						<g>
							<g>
								<path style="fill:#00276F;" d="M449.346,150.901c-0.043,0.134-0.07,0.257-0.09,0.396c-0.083,0.567,0.744,0.678,0.775,0.105
									c0.008-0.141,0.005-0.268-0.01-0.409C449.981,150.619,449.47,150.512,449.346,150.901L449.346,150.901z"/>
							</g>
						</g>
						<g>
							<g>
								<path style="fill:#00276F;" d="M453.621,150.993c-0.015,0.141-0.017,0.268-0.01,0.409c0.03,0.564,0.859,0.47,0.775-0.105
									c-0.02-0.139-0.047-0.262-0.09-0.396C454.173,150.515,453.662,150.616,453.621,150.993L453.621,150.993z"/>
							</g>
						</g>
						<path style="fill:#FFFFFF;" d="M453.752,154.565h-3.39c0,0,0.161,1.367,1.711,1.367
							C453.624,155.932,453.752,154.565,453.752,154.565z"/>
						<g>
							<path style="fill:#00276F;" d="M447.549,152.183c0.78-1.146,1.534-2.286,1.41-3.906c1.478,0.614,3.422,0.602,4.949,0.33
								c0.966-0.172,2.118-0.543,2.897-1.212c0.778-0.669,1.077-2.879,0.358-3.628c-0.772-0.804-2.014-0.31-2.943,0.249
								c-0.4-0.765-1.142-1.293-1.93-1.371s-1.602,0.294-2.116,0.969c-0.144,0.189-0.276,0.408-0.483,0.497
								c-0.246,0.105-0.518-0.008-0.776-0.066c-1.414-0.318-2.744,1.934-2.99,3.526c-0.246,1.592,0.287,3.195,0.849,4.683
								c0.086,0.228,0.31,0.499,0.478,0.338"/>
						</g>
						<g>
							<path style="fill:#00276F;" d="M456.167,146.531c1.228,1.632,1.37,4.007,0.344,5.773c-0.037,0.064-0.082,0.132-0.152,0.155
								c-0.091,0.029-0.185-0.028-0.257-0.091c-0.319-0.28-0.468-0.711-0.519-1.133c-0.051-0.422-0.017-0.849-0.037-1.273
								c-0.05-1.016-0.424-2.013-1.055-2.811"/>
						</g>
						<g>
							<path style="fill:#F886BC;" d="M448.043,151.705c-0.227-0.253-0.723-0.298-1.011-0.092c-0.25,0.179-0.314,0.478-0.331,0.752
								c-0.016,0.264-0.001,0.533,0.105,0.782c0.106,0.249,0.314,0.476,0.604,0.584c0.29,0.108,0.663,0.076,0.884-0.113"/>
						</g>
					</g>
				</g>
				<g>
					
						<line style="fill:none;stroke:#E6EFFC;stroke-width:3;stroke-linecap:round;stroke-linejoin:round;stroke-miterlimit:10;" x1="429.878" y1="139.617" x2="357.549" y2="139.617"/>
					
						<line style="fill:none;stroke:#E6EFFC;stroke-width:3;stroke-linecap:round;stroke-linejoin:round;stroke-miterlimit:10;" x1="410.576" y1="148.487" x2="357.549" y2="148.487"/>
					
						<line style="fill:none;stroke:#E6EFFC;stroke-width:3;stroke-linecap:round;stroke-linejoin:round;stroke-miterlimit:10;" x1="429.878" y1="148.487" x2="417.486" y2="148.487"/>
					
						<line style="fill:none;stroke:#E6EFFC;stroke-width:3;stroke-linecap:round;stroke-linejoin:round;stroke-miterlimit:10;" x1="379.5" y1="157.356" x2="357.549" y2="157.356"/>
					
						<line style="fill:none;stroke:#E6EFFC;stroke-width:3;stroke-linecap:round;stroke-linejoin:round;stroke-miterlimit:10;" x1="429.878" y1="157.356" x2="387.728" y2="157.356"/>
					
						<line style="fill:none;stroke:#E6EFFC;stroke-width:3;stroke-linecap:round;stroke-linejoin:round;stroke-miterlimit:10;" x1="403.279" y1="166.225" x2="357.549" y2="166.225"/>
				</g>
			</g>
			<g>
				<path style="fill:#FF5A89;" d="M329.179,165.492H297.22c-5.138,0-9.303,4.165-9.303,9.304l0,0c0,5.138,4.165,9.303,9.303,9.303
					h2.671l1.675,2.164l1.675-2.164h25.938c5.138,0,9.303-4.165,9.303-9.303l0,0C338.482,169.658,334.317,165.492,329.179,165.492z"
					/>
				<g>
					<path style="fill:#FFFFFF;" d="M304.237,172.393c-0.184-1.178-1.137-2.143-2.312-2.344c-1.341-0.228-2.536,0.487-3.059,1.584
						c-0.524-1.097-1.718-1.812-3.06-1.584c-1.175,0.2-2.128,1.166-2.312,2.344c-0.151,0.965,0.184,1.858,0.798,2.472l4.053,4.053
						c0.288,0.288,0.754,0.288,1.042,0l4.053-4.053C304.054,174.251,304.389,173.358,304.237,172.393z"/>
					<path style="fill:#FFFFFF;" d="M318.571,172.393c-0.185-1.178-1.137-2.143-2.312-2.344c-1.341-0.228-2.536,0.487-3.059,1.584
						c-0.523-1.097-1.718-1.812-3.059-1.584c-1.175,0.2-2.128,1.166-2.312,2.344c-0.151,0.965,0.184,1.858,0.798,2.472l4.053,4.053
						c0.288,0.288,0.754,0.288,1.042,0l4.053-4.053C318.387,174.251,318.722,173.358,318.571,172.393z"/>
					<path style="fill:#FFFFFF;" d="M332.904,172.393c-0.184-1.178-1.137-2.143-2.312-2.344c-1.342-0.228-2.536,0.487-3.059,1.584
						c-0.524-1.097-1.718-1.812-3.06-1.584c-1.175,0.2-2.128,1.166-2.312,2.344c-0.151,0.965,0.184,1.858,0.797,2.472l4.053,4.053
						c0.288,0.288,0.754,0.288,1.042,0l4.053-4.053C332.72,174.251,333.055,173.358,332.904,172.393z"/>
				</g>
			</g>
			<g>
				<path style="fill:#FF5A89;" d="M419.441,307.996H451.4c5.138,0,9.303-4.165,9.303-9.304l0,0c0-5.138-4.165-9.303-9.303-9.303
					h-2.671l-1.675-2.164l-1.675,2.164h-25.937c-5.138,0-9.303,4.165-9.303,9.303l0,0
					C410.138,303.83,414.303,307.996,419.441,307.996z"/>
				<g>
					<path style="fill:#FFFFFF;" d="M426.459,296.613c-0.185-1.178-1.137-2.143-2.312-2.344c-1.341-0.228-2.536,0.487-3.059,1.584
						c-0.524-1.097-1.718-1.812-3.06-1.584c-1.175,0.2-2.128,1.166-2.312,2.344c-0.151,0.965,0.184,1.858,0.798,2.472l4.053,4.053
						c0.288,0.288,0.754,0.288,1.042,0l4.053-4.053C426.275,298.471,426.61,297.578,426.459,296.613z"/>
					<path style="fill:#FFFFFF;" d="M440.792,296.613c-0.184-1.178-1.137-2.143-2.312-2.344c-1.342-0.228-2.536,0.487-3.059,1.584
						c-0.523-1.097-1.718-1.812-3.059-1.584c-1.175,0.2-2.128,1.166-2.312,2.344c-0.151,0.965,0.184,1.858,0.798,2.472l4.053,4.053
						c0.288,0.288,0.754,0.288,1.042,0l4.053-4.053C440.609,298.471,440.943,297.578,440.792,296.613z"/>
					<path style="fill:#FFFFFF;" d="M455.125,296.613c-0.184-1.178-1.137-2.143-2.312-2.344c-1.342-0.228-2.536,0.487-3.059,1.584
						c-0.524-1.097-1.718-1.812-3.06-1.584c-1.175,0.2-2.128,1.166-2.312,2.344c-0.151,0.965,0.184,1.858,0.797,2.472l4.053,4.053
						c0.288,0.288,0.754,0.288,1.042,0l4.053-4.053C454.942,298.471,455.277,297.578,455.125,296.613z"/>
				</g>
			</g>
			<g>
				<g>
					<path style="fill:#FFFFFF;stroke:#6CA0FF;stroke-linecap:round;stroke-linejoin:round;stroke-miterlimit:10;" d="
						M571.893,127.374h-40.388c-6.494,0-11.758,5.264-11.758,11.758l0,0c0,6.493,5.264,11.757,11.758,11.757h3.375l2.117,2.735
						l2.117-2.735h32.779c6.493,0,11.758-5.264,11.758-11.757l0,0C583.65,132.638,578.386,127.374,571.893,127.374z"/>
				</g>
				<g>
					
						<ellipse transform="matrix(0.7071 -0.7071 0.7071 0.7071 57.6927 417.3102)" style="fill:#FFAB37;" cx="532.584" cy="139.014" rx="7.92" ry="7.92"/>
					<g>
						<path style="fill:#EA3974;" d="M538.356,137.629c0.171-0.516-0.014-1.106-0.449-1.432c-0.497-0.372-1.13-0.331-1.571,0.005
							c0.016-0.554-0.319-1.093-0.911-1.28c-0.518-0.164-1.106,0.029-1.426,0.468c-0.263,0.36-0.313,0.792-0.192,1.169l0.799,2.489
							c0.057,0.177,0.246,0.274,0.422,0.217l2.489-0.799C537.894,138.345,538.216,138.052,538.356,137.629z"/>
					</g>
					<g>
						<path style="fill:#EA3974;" d="M526.586,137.629c-0.171-0.516,0.014-1.106,0.449-1.432c0.497-0.372,1.13-0.331,1.571,0.005
							c-0.016-0.554,0.319-1.093,0.91-1.28c0.518-0.164,1.106,0.029,1.426,0.468c0.263,0.36,0.313,0.792,0.192,1.169l-0.799,2.489
							c-0.057,0.177-0.246,0.274-0.422,0.217l-2.489-0.799C527.048,138.345,526.726,138.052,526.586,137.629z"/>
					</g>
					<path style="fill:#FFFFFF;" d="M536.669,140.682c0,2.256-1.829,4.085-4.085,4.085c-2.256,0-4.085-1.829-4.085-4.085H536.669z"
						/>
				</g>
				<g>
					
						<ellipse transform="matrix(0.1606 -0.987 0.987 0.1606 326.0846 661.4503)" style="fill:#FFAB37;" cx="551.921" cy="139.014" rx="7.92" ry="7.92"/>
					<g>
						<path style="fill:#EA3974;" d="M557.693,137.629c0.171-0.516-0.014-1.106-0.449-1.432c-0.496-0.372-1.13-0.331-1.571,0.005
							c0.016-0.554-0.319-1.093-0.911-1.28c-0.518-0.164-1.106,0.029-1.426,0.468c-0.263,0.36-0.313,0.792-0.192,1.169l0.799,2.489
							c0.057,0.177,0.246,0.274,0.422,0.217l2.489-0.799C557.231,138.345,557.553,138.052,557.693,137.629z"/>
					</g>
					<g>
						<path style="fill:#EA3974;" d="M545.923,137.629c-0.171-0.516,0.014-1.106,0.449-1.432c0.496-0.372,1.13-0.331,1.571,0.005
							c-0.016-0.554,0.319-1.093,0.91-1.28c0.518-0.164,1.106,0.029,1.426,0.468c0.263,0.36,0.313,0.792,0.192,1.169l-0.799,2.489
							c-0.057,0.177-0.246,0.274-0.423,0.217l-2.489-0.799C546.385,138.345,546.063,138.052,545.923,137.629z"/>
					</g>
					<path style="fill:#FFFFFF;" d="M556.006,140.682c0,2.256-1.829,4.085-4.085,4.085c-2.256,0-4.085-1.829-4.085-4.085H556.006z"
						/>
				</g>
				<g>
					
						<ellipse transform="matrix(0.2305 -0.9731 0.9731 0.2305 304.2936 662.837)" style="fill:#FFAB37;" cx="571.258" cy="139.014" rx="7.92" ry="7.92"/>
					<g>
						<path style="fill:#EA3974;" d="M577.03,137.629c0.171-0.516-0.014-1.106-0.449-1.432c-0.496-0.372-1.13-0.331-1.571,0.005
							c0.016-0.554-0.319-1.093-0.911-1.28c-0.518-0.164-1.106,0.029-1.426,0.468c-0.263,0.36-0.313,0.792-0.192,1.169l0.799,2.489
							c0.057,0.177,0.246,0.274,0.422,0.217l2.489-0.799C576.568,138.345,576.89,138.052,577.03,137.629z"/>
					</g>
					<g>
						<path style="fill:#EA3974;" d="M565.26,137.629c-0.171-0.516,0.014-1.106,0.449-1.432c0.497-0.372,1.13-0.331,1.571,0.005
							c-0.016-0.554,0.319-1.093,0.911-1.28c0.518-0.164,1.106,0.029,1.426,0.468c0.263,0.36,0.313,0.792,0.192,1.169l-0.799,2.489
							c-0.057,0.177-0.246,0.274-0.422,0.217l-2.489-0.799C565.722,138.345,565.4,138.052,565.26,137.629z"/>
					</g>
					<path style="fill:#FFFFFF;" d="M575.343,140.682c0,2.256-1.829,4.085-4.085,4.085c-2.256,0-4.085-1.829-4.085-4.085H575.343z"
						/>
				</g>
			</g>
		</g>
	</g>
</g>
<g id="DESIGNED_BY_FREEPIK">
	<g>
		<g id="XMLID_1_">
			<g id="XMLID_21_">
				<path id="XMLID_29_" style="fill:#1D262D;" d="M385.105,465.676c-0.433,0.442-0.804,0.931-1.108,1.452l-0.466-0.24
					c-0.066-0.298-0.349-0.503-0.658-0.467c-0.331,0.039-0.568,0.339-0.529,0.67c0.039,0.331,0.339,0.568,0.67,0.529
					c0.065-0.008,0.127-0.026,0.184-0.053l0.451,0.234c-0.251,0.554-0.433,1.139-0.539,1.744l0.746,0.131
					c0.231-1.306,0.85-2.506,1.792-3.472L385.105,465.676z"/>
				<path id="XMLID_28_" style="fill:#1D262D;" d="M390.592,463.373c-0.171,0-0.341,0.007-0.51,0.018l-0.073-0.626
					c0.188-0.149,0.296-0.39,0.266-0.645c-0.046-0.394-0.402-0.675-0.795-0.629c-0.394,0.047-0.675,0.402-0.629,0.796
					c0.03,0.254,0.189,0.461,0.405,0.564l0.073,0.624c-0.714,0.116-1.403,0.332-2.06,0.646l0.327,0.684
					c0.934-0.447,1.941-0.673,2.995-0.673c0.496,0,0.993,0.053,1.475,0.157l0.161-0.741
					C391.693,463.432,391.143,463.373,390.592,463.373z"/>
				<path id="XMLID_27_" style="fill:#1D262D;" d="M397.194,465.921c0.331-0.041,0.566-0.342,0.525-0.673
					c-0.04-0.331-0.342-0.565-0.672-0.525c-0.31,0.038-0.535,0.304-0.53,0.608l-0.416,0.363c-0.418-0.43-0.89-0.813-1.408-1.139
					l-0.403,0.641c1.134,0.715,2.02,1.727,2.563,2.926l0.69-0.313c-0.251-0.555-0.567-1.072-0.942-1.545l0.402-0.352
					C397.065,465.926,397.129,465.928,397.194,465.921z"/>
				<path id="XMLID_26_" style="fill:#1D262D;" d="M390.044,473.582c-0.386,0.023-0.774,0.034-1.157,0.034
					c-0.88,0-1.732-0.061-2.478-0.179c-0.391-0.063-0.847-0.155-1.271-0.292c1.046,1.86,3.069,3.125,5.389,3.125
					c2.855,0,5.262-1.916,5.949-4.504c-0.682,0.449-1.506,0.825-2.459,1.123C392.839,473.257,391.464,473.496,390.044,473.582z"/>
				<path id="XMLID_22_" style="fill:#1D262D;" d="M390.592,464.889c-3.353,0-6.079,2.666-6.079,5.943
					c0,0.426,0.046,0.849,0.137,1.262c0.674,0.482,2.706,0.89,5.348,0.73c2.879-0.173,5.297-0.957,6.672-2.158
					c-0.005-0.195-0.021-0.391-0.045-0.582C396.244,467.123,393.651,464.889,390.592,464.889z M388.433,471.404
					c-1.021,0-1.85-0.83-1.85-1.85c0-1.021,0.829-1.85,1.85-1.85c1.02,0,1.85,0.829,1.85,1.85
					C390.282,470.574,389.452,471.404,388.433,471.404z M393.17,470.496c-0.75,0-1.36-0.61-1.36-1.36s0.61-1.36,1.36-1.36
					s1.36,0.61,1.36,1.36S393.92,470.496,393.17,470.496z"/>
			</g>
			<path id="XMLID_19_" style="fill:#1D262D;" d="M406.596,466.757c-0.295-0.116-0.806-0.309-1.383-0.237
				c-0.551,0.068-0.844,0.341-0.844,1.007v0.865h2.228v1.718h-2.228v5.454h-1.932v-5.454h-1.34v-1.718h1.34v-0.888
				c0-1.681,0.896-2.783,2.568-2.783c0.642,0,1.157,0.122,1.59,0.309V466.757z"/>
			<path id="XMLID_17_" style="fill:#1D262D;" d="M411.298,470.089c-0.177-0.03-0.358-0.047-0.526-0.047
				c-0.895,0-1.51,0.548-1.51,1.614v3.907h-1.932v-7.172h1.873v0.785c0.451-0.674,1.14-0.978,2.021-0.978
				c0.414,0,0.848,0.128,1.094,0.337L411.298,470.089z"/>
			<path id="XMLID_14_" style="fill:#1D262D;" d="M418.965,471.966c0,0.222-0.015,0.488-0.037,0.651h-5.084
				c0.207,1.036,0.933,1.487,1.843,1.487c0.621,0,1.295-0.251,1.814-0.688l1.132,1.243c-0.813,0.747-1.85,1.088-3.057,1.088
				c-2.198,0-3.723-1.495-3.723-3.753c0-2.257,1.481-3.797,3.627-3.797C417.544,468.199,418.958,469.731,418.965,471.966z
				 M413.851,471.301h3.175c-0.177-0.918-0.732-1.436-1.562-1.436C414.554,469.864,414.022,470.412,413.851,471.301z"/>
			<path id="XMLID_11_" style="fill:#1D262D;" d="M426.618,471.966c0,0.222-0.015,0.488-0.037,0.651h-5.084
				c0.207,1.036,0.933,1.487,1.843,1.487c0.621,0,1.295-0.251,1.814-0.688l1.132,1.243c-0.815,0.747-1.851,1.088-3.057,1.088
				c-2.198,0-3.723-1.495-3.723-3.753c0-2.257,1.48-3.797,3.626-3.797C425.197,468.199,426.611,469.731,426.618,471.966z
				 M421.504,471.301h3.176c-0.178-0.918-0.733-1.436-1.563-1.436C422.207,469.864,421.674,470.412,421.504,471.301z"/>
			<path id="XMLID_8_" style="fill:#1D262D;" d="M434.964,471.974c0,2.153-1.495,3.775-3.471,3.775
				c-0.963,0-1.644-0.378-2.109-0.933v3.708h-1.925v-10.133h1.888v0.792c0.466-0.585,1.154-0.984,2.139-0.984
				C433.469,468.199,434.964,469.82,434.964,471.974z M429.287,471.974c0,1.132,0.748,1.976,1.843,1.976
				c1.14,0,1.851-0.881,1.851-1.976c0-1.096-0.711-1.977-1.851-1.977C430.035,469.998,429.287,470.841,429.287,471.974z"/>
			<path id="XMLID_4_" style="fill:#1D262D;" d="M438.068,466.046c0,0.695-0.54,1.229-1.235,1.229c-0.696,0-1.23-0.533-1.23-1.229
				c0-0.696,0.533-1.244,1.23-1.244C437.527,464.802,438.068,465.349,438.068,466.046z M437.809,475.563h-1.931v-7.172h1.931
				V475.563z"/>
			<path id="XMLID_2_" style="fill:#1D262D;" d="M441.032,470.945l2.701-2.554h2.369l-3.479,3.375l3.501,3.797h-2.376l-2.716-2.901
				v2.901h-1.932v-10.657h1.932V470.945z"/>
		</g>
		<g>
			<path style="fill:#1D262D;" d="M309.413,475.499v-1.055c-0.527,0.718-1.391,1.23-2.388,1.23c-1.846,0-3.149-1.406-3.149-3.706
				c0-2.256,1.289-3.721,3.149-3.721c0.952,0,1.816,0.469,2.388,1.245v-3.765h1.099v9.771H309.413z M309.413,473.58v-3.208
				c-0.395-0.615-1.245-1.143-2.124-1.143c-1.421,0-2.27,1.172-2.27,2.739c0,1.567,0.85,2.725,2.27,2.725
				C308.168,474.693,309.017,474.195,309.413,473.58z"/>
			<path style="fill:#1D262D;" d="M311.932,471.954c0-2.051,1.465-3.706,3.487-3.706c2.138,0,3.398,1.67,3.398,3.794v0.278h-5.728
				c0.088,1.333,1.025,2.446,2.549,2.446c0.806,0,1.626-0.322,2.183-0.893l0.527,0.718c-0.703,0.703-1.655,1.084-2.813,1.084
				C313.441,475.674,311.932,474.166,311.932,471.954z M315.404,469.156c-1.509,0-2.256,1.274-2.314,2.358h4.644
				C317.718,470.46,317.015,469.156,315.404,469.156z"/>
			<path style="fill:#1D262D;" d="M319.607,474.561l0.571-0.791c0.469,0.542,1.362,1.011,2.329,1.011c1.084,0,1.67-0.513,1.67-1.216
				c0-1.714-4.38-0.659-4.38-3.281c0-1.099,0.952-2.036,2.637-2.036c1.201,0,2.051,0.454,2.622,1.025l-0.513,0.762
				c-0.424-0.513-1.201-0.894-2.109-0.894c-0.967,0-1.567,0.483-1.567,1.113c0,1.553,4.379,0.527,4.379,3.281
				c0,1.187-0.952,2.139-2.783,2.139C321.306,475.674,320.325,475.323,319.607,474.561z"/>
			<path style="fill:#1D262D;" d="M326.477,466.68c0-0.41,0.337-0.747,0.732-0.747c0.41,0,0.747,0.337,0.747,0.747
				c0,0.41-0.337,0.732-0.747,0.732C326.814,467.413,326.477,467.091,326.477,466.68z M326.667,475.499v-7.075h1.099v7.075H326.667z
				"/>
			<path style="fill:#1D262D;" d="M329.582,477.315l0.557-0.82c0.586,0.703,1.289,0.967,2.3,0.967c1.172,0,2.27-0.571,2.27-2.124
				v-1.011c-0.512,0.718-1.376,1.26-2.373,1.26c-1.845,0-3.149-1.377-3.149-3.662c0-2.271,1.289-3.677,3.149-3.677
				c0.952,0,1.802,0.469,2.373,1.245v-1.069h1.099v6.87c0,2.344-1.641,3.076-3.369,3.076
				C331.237,478.37,330.417,478.135,329.582,477.315z M334.709,473.463v-3.091c-0.381-0.615-1.23-1.143-2.109-1.143
				c-1.421,0-2.271,1.128-2.271,2.695c0,1.553,0.849,2.695,2.271,2.695C333.478,474.62,334.328,474.078,334.709,473.463z"/>
			<path style="fill:#1D262D;" d="M342.413,475.499v-4.629c0-1.245-0.629-1.641-1.582-1.641c-0.865,0-1.685,0.527-2.095,1.099v5.171
				h-1.099v-7.075h1.099v1.025c0.498-0.586,1.464-1.201,2.519-1.201c1.479,0,2.256,0.747,2.256,2.285v4.966H342.413z"/>
			<path style="fill:#1D262D;" d="M344.933,471.954c0-2.051,1.465-3.706,3.486-3.706c2.138,0,3.398,1.67,3.398,3.794v0.278h-5.728
				c0.088,1.333,1.025,2.446,2.549,2.446c0.806,0,1.626-0.322,2.183-0.893l0.527,0.718c-0.703,0.703-1.655,1.084-2.813,1.084
				C346.442,475.674,344.933,474.166,344.933,471.954z M348.404,469.156c-1.509,0-2.256,1.274-2.314,2.358h4.643
				C350.719,470.46,350.015,469.156,348.404,469.156z"/>
			<path style="fill:#1D262D;" d="M358.35,475.499v-1.055c-0.527,0.718-1.392,1.23-2.388,1.23c-1.845,0-3.149-1.406-3.149-3.706
				c0-2.256,1.289-3.721,3.149-3.721c0.952,0,1.817,0.469,2.388,1.245v-3.765h1.098v9.771H358.35z M358.35,473.58v-3.208
				c-0.396-0.615-1.245-1.143-2.124-1.143c-1.421,0-2.271,1.172-2.271,2.739c0,1.567,0.85,2.725,2.271,2.725
				C357.105,474.693,357.954,474.195,358.35,473.58z"/>
			<path style="fill:#1D262D;" d="M364.692,475.499v-9.771h1.099v3.765c0.572-0.776,1.421-1.245,2.388-1.245
				c1.846,0,3.149,1.465,3.149,3.721c0,2.3-1.304,3.706-3.149,3.706c-0.996,0-1.86-0.513-2.388-1.23v1.055H364.692z M367.9,474.693
				c1.436,0,2.286-1.157,2.286-2.725c0-1.567-0.85-2.739-2.286-2.739c-0.864,0-1.728,0.527-2.109,1.143v3.208
				C366.172,474.195,367.036,474.693,367.9,474.693z"/>
			<path style="fill:#1D262D;" d="M372.529,477.271c0.161,0.073,0.425,0.117,0.601,0.117c0.483,0,0.805-0.161,1.055-0.747
				l0.468-1.069l-2.959-7.148h1.187l2.358,5.801l2.344-5.801h1.201l-3.545,8.511c-0.425,1.025-1.143,1.421-2.08,1.436
				c-0.234,0-0.601-0.044-0.806-0.103L372.529,477.271z"/>
		</g>
	</g>
</g>
</svg>
