<?xml version="1.0" encoding="utf-8"?>
<!-- Generator: Adobe Illustrator 27.5.0, SVG Export Plug-In . SVG Version: 6.00 Build 0)  -->
<svg version="1.1" xmlns="http://www.w3.org/2000/svg" xmlns:xlink="http://www.w3.org/1999/xlink" x="0px" y="0px"
	 viewBox="0 0 3710 3710" style="enable-background:new 0 0 3710 3710;" xml:space="preserve">
<g id="Background">
	<g>
		<g>
			<rect style="fill:#FFFFFF;" width="3710" height="3710"/>
		</g>
	</g>
</g>
<g id="Illustration">
	<g>
		<linearGradient id="SVGID_1_" gradientUnits="userSpaceOnUse" x1="3424.541" y1="3619.5864" x2="1371.5065" y2="1403.6122">
			<stop  offset="0" style="stop-color:#DAE3FE"/>
			<stop  offset="1" style="stop-color:#E9EFFD"/>
		</linearGradient>
		<path style="fill:url(#SVGID_1_);" d="M3139.81,2356.288c-282.413,658.752-1027.892,941.702-1611.986,893.458
			c-159.482-13.172-480.362-39.676-730.908-276.122c-481.156-454.081-407.054-1403.237,53.551-1962.047
			c59.316-71.963,469.895-554.109,1109.706-547.656c468.435,4.725,797.224,268.794,837.204,301.693
			c50.505,41.559,161.898,140.317,262.291,296.989C3295.554,1430.728,3316.289,1944.634,3139.81,2356.288z"/>
		<g>
			<path style="fill:#BDD0FB;" d="M633.32,477.159c-5.082-15.685,13.207-28.574,26.424-18.716
				c134.21,100.094,464.339,407.988,459.47,1012.192c-6.109,758.063,180.659,1013.191,393.453,1157.574
				c0,0-275.151-47.996-474.137-305.8C549.973,1689.44,723.676,756.042,633.32,477.159z"/>
			<path style="fill:#FFFFFF;" d="M752.152,700.208c24.632,81.514,47.644,163.47,67.627,246.151
				c20.413,82.561,38.314,165.703,53.598,249.284c14.962,83.632,28.352,167.532,38.159,251.876
				c10.185,84.296,16.739,168.935,23.022,253.937c6.754,84.918,13.074,170.502,28.176,255.701
				c14.992,85.033,40.376,169.643,80.467,247.106c10.015,19.303,20.421,38.499,31.854,56.89
				c11.097,18.611,23.021,36.736,35.265,54.639c24.671,35.694,51.754,69.811,81.244,101.764
				c59.153,63.765,127.97,118.471,201.99,162.978c7.791,4.684,17.903,2.166,22.588-5.625c4.6-7.65,2.254-17.539-5.209-22.329
				l-0.053-0.034c-17.697-11.335-35.243-22.858-52.214-35.123c-8.586-5.999-16.887-12.365-25.304-18.573
				c-8.172-6.519-16.601-12.723-24.562-19.487c-32.296-26.512-62.692-55.259-90.811-86.112
				c-56.481-61.362-104.083-131.482-142.512-205.416c-18.803-37.196-34.833-75.712-47.843-115.329
				c-12.981-39.63-22.938-80.319-30.579-121.607c-15.297-82.622-22.253-167.28-29.617-252.145
				c-7.475-84.873-15.57-170.111-27.16-254.883c-5.68-42.396-12.121-84.685-19.316-126.838c-3.476-21.096-7.36-42.121-11.205-63.149
				c-4.047-20.992-8.21-41.958-12.543-62.886c-17.486-83.685-37.518-166.796-60.147-249.158
				c-23.023-82.253-48.222-163.867-76.522-244.373c-0.81-2.302-3.33-3.511-5.63-2.702
				C752.68,695.55,751.478,697.962,752.152,700.208z"/>
		</g>
		<g>
			<g>
				<path style="fill:#91B3FA;" d="M996.39,2718.955c-9.774,28.764-45.748,38.198-68.642,18.23
					c-126.329-110.179-455.333-453.993-435.202-1032.31c17-488.362-20.19-754.788-45.454-874.565
					c-5.342-25.328,24.755-42.754,44.095-25.55C704.563,994.579,1350.55,1676.67,996.39,2718.955z"/>
				<path style="fill:#FFFFFF;" d="M955.269,2720.015c-0.619,0.429-1.286,0.803-2.003,1.116c-5.999,2.629-12.995-0.104-15.623-6.103
					c-2.98-6.802-298.054-687.955-305.09-1368.058c-0.065-6.545,5.187-11.91,11.739-11.985c6.551-0.066,11.914,5.188,11.985,11.74
					c6.984,675.152,300.134,1352.027,303.093,1358.784C961.687,2710.793,959.843,2716.849,955.269,2720.015z"/>
			</g>
		</g>
		<g>
			
				<linearGradient id="SVGID_00000095314221972300201850000009484128334817621893_" gradientUnits="userSpaceOnUse" x1="1119.3549" y1="1649.5142" x2="3148.1648" y2="1649.5142">
				<stop  offset="0" style="stop-color:#4F52FF"/>
				<stop  offset="1" style="stop-color:#4042E2"/>
			</linearGradient>
			<path style="fill:url(#SVGID_00000095314221972300201850000009484128334817621893_);" d="M3147.311,1694.009
				c-22.766,518.592-495.004,919.073-1054.773,894.499c-559.77-24.574-995.096-464.896-972.329-983.489
				c22.766-518.592,495.004-919.073,1054.773-894.499C2734.751,735.094,3170.077,1175.417,3147.311,1694.009z"/>
			<ellipse style="opacity:0.26;fill:#91B3FA;" cx="2078.851" cy="1581.702" rx="796.09" ry="752.051"/>
			<g style="opacity:0.68;">
				<path style="fill:#FFFFFF;" d="M2397.029,1654.054c-0.15,83.013-3.161,166.038-9.659,248.831
					c-6.71,82.769-17.016,165.287-31.822,247.075c-15.184,81.668-34.438,162.896-63.53,241.145
					c-14.779,38.97-31.891,77.395-55.116,112.633c-11.781,17.447-24.981,34.3-41.519,48.157
					c-8.258,6.886-17.328,13.042-27.368,17.545c-10.024,4.482-21.028,7.211-32.167,7.455c-11.137,0.378-22.3-1.804-32.501-5.924
					c-10.24-4.076-19.579-9.894-28.025-16.576c-16.855-13.487-30.574-30.011-42.42-47.417
					c-23.696-34.964-40.994-73.333-55.921-112.243c-29.473-78.115-48.813-159.334-64.148-240.965
					c-29.965-163.551-42.326-329.777-43.842-495.816c0.069-83.027,3.787-166.027,10.081-248.8
					c6.448-82.762,15.92-165.329,29.837-247.217c14.133-81.791,32.134-163.234,59.982-241.767
					c14.188-39.091,30.687-77.707,53.635-112.873c11.507-17.479,24.864-34.095,41.399-47.5c8.28-6.642,17.451-12.364,27.462-16.308
					c9.972-4.003,20.837-6.003,31.615-5.51c10.772,0.365,21.427,2.887,31.234,7.179c9.813,4.302,18.807,10.158,27.069,16.77
					c16.524,13.316,30.104,29.618,42.241,46.65c24.038,34.367,42.171,72.208,57.924,110.703
					c31.069,77.321,52.131,158.085,68.818,239.424c16.335,81.468,27.828,163.845,35.446,246.543
					C2393.114,1487.975,2396.674,1571.012,2397.029,1654.054z M2376.576,1654.054c0.222-82.486-2.741-165.002-9.498-247.21
					c-6.568-82.21-16.505-164.205-31.5-245.295c-15.081-80.996-34.533-161.487-63.839-238.426
					c-14.855-38.294-32.082-75.915-54.935-109.876c-11.526-16.825-24.441-32.865-39.974-45.845
					c-15.37-12.908-34.02-22.755-54.019-23.371c-20.021-0.786-39.063,8.486-54.372,21.3c-15.432,12.978-28.082,29.234-38.966,46.459
					c-21.73,34.646-37.337,72.995-50.634,111.848c-26.101,78.085-42.516,159.24-55.063,240.699
					c-24.549,163.215-32.135,328.646-31.31,493.592c-0.63,164.889,9.557,330.246,37.197,492.836
					c14.156,81.126,32.326,161.867,60.351,239.108c14.173,38.451,30.717,76.288,53.1,110.217
					c11.166,16.9,24.066,32.719,39.407,45.311c15.245,12.425,33.747,21.397,53.032,20.666c9.556-0.345,18.988-2.79,27.794-6.857
					c8.81-4.09,16.968-9.755,24.497-16.208c15.095-12.97,27.526-29.183,38.623-46.116c21.935-34.244,38.274-72.144,52.284-110.662
					c27.615-77.391,45.652-158.136,59.625-239.298c13.888-81.255,23.013-163.323,29.125-245.576
					C2373.783,1819.096,2376.602,1736.568,2376.576,1654.054z"/>
				<path style="fill:#FFFFFF;" d="M2815.819,1654.054c-0.689,107.157-14.577,214.345-43.376,317.66
					c-29.412,103.054-73.776,202.087-133.758,290.962c-59.898,88.693-136.153,167.284-227.147,224.293
					c-45.448,28.404-94.538,51.136-145.919,66.538c-51.352,15.441-104.955,23.468-158.584,23.466
					c-107.468,0.221-213.773-32.985-304.74-89.631c-91.203-56.829-167.65-135.41-227.781-224.088
					c-60.182-88.894-104.7-188-134.338-291.137c-14.534-51.675-25.417-104.37-32.574-157.558
					c-7.103-53.197-10.686-106.841-10.959-160.505c0.329-53.663,3.967-107.301,11.124-160.483
					c7.213-53.173,18.164-105.842,32.755-157.484c29.759-103.068,74.391-202.063,134.638-290.803
					c60.166-88.548,136.621-166.942,227.715-223.6c90.853-56.487,196.928-89.588,304.159-89.357
					c107.233-0.085,213.215,33.164,303.902,89.765c90.929,56.77,167.161,135.222,227.104,223.769
					c60.065,88.716,104.486,187.654,134.097,290.617C2801.363,1439.658,2815.24,1546.899,2815.819,1654.054z M2792.374,1654.054
					c-0.078-52.585-3.396-105.156-10.16-157.288c-6.738-52.127-16.63-103.888-30.385-154.653
					c-27.538-101.429-69.18-199.438-126.706-287.659c-57.451-87.965-130.906-166.614-219.634-223.738
					c-44.452-28.202-92.451-50.978-142.833-66.333c-50.359-15.35-102.937-23.432-155.623-23.634
					c-52.686,0.277-105.241,8.433-155.558,23.848c-50.34,15.424-98.268,38.274-142.64,66.527
					c-88.562,57.237-161.795,135.943-219.023,223.908c-57.343,88.196-98.775,186.148-126.165,287.472
					c-13.704,50.707-23.529,102.41-30.239,154.468c-6.744,52.064-10.044,104.567-10.11,157.082
					c0.121,52.516,3.477,105.01,10.275,157.06c6.766,52.044,16.659,103.721,30.42,154.394
					c27.511,101.254,69.057,199.096,126.466,287.138c57.263,87.834,130.504,166.353,218.957,223.419
					c44.31,28.183,92.161,50.952,142.398,66.331c50.214,15.373,102.651,23.502,155.22,23.77
					c52.568-0.274,105.004-8.41,155.214-23.79c50.237-15.344,98.212-37.854,142.639-65.937
					c88.663-56.885,162.094-135.396,219.59-223.214c57.608-88.062,99.308-185.975,127.045-287.315
					C2779.211,1864.438,2792.263,1759.191,2792.374,1654.054z"/>
				<path style="fill:#FFFFFF;" d="M1285.411,1289.092c70.483-1.322,140.966-1.889,211.449-2.848l211.449-1.613
					c70.483-0.687,140.966-0.613,211.449-0.825l211.448-0.477l211.449,0.542c70.483,0.327,140.966,0.149,211.449,0.891
					l211.449,1.762c70.483,1.046,140.966,1.658,211.449,3.074c0.572,0.011,1.026,0.484,1.014,1.055
					c-0.011,0.557-0.462,1.002-1.014,1.014c-70.483,1.417-140.966,2.028-211.449,3.074l-211.449,1.763
					c-70.483,0.742-140.966,0.563-211.449,0.891l-211.449,0.542l-211.448-0.476c-70.483-0.212-140.966-0.138-211.449-0.826
					l-211.449-1.614c-70.483-0.959-140.966-1.526-211.449-2.848c-0.851-0.016-1.528-0.719-1.512-1.57
					C1283.914,1289.773,1284.587,1289.108,1285.411,1289.092z"/>
				<path style="fill:#FFFFFF;" d="M1530.716,934.932c50.041-1.321,100.082-1.888,150.122-2.847l150.123-1.613
					c100.082-1.08,200.163-1.207,300.245-1.321c100.082,0.104,200.163,0.343,300.245,1.452l150.122,1.762
					c50.041,1.046,100.082,1.658,150.123,3.074c0.572,0.016,1.022,0.493,1.006,1.064c-0.016,0.551-0.462,0.989-1.006,1.006
					c-50.041,1.416-100.082,2.028-150.123,3.074l-150.122,1.762c-100.082,1.109-200.163,1.348-300.245,1.452
					c-100.082-0.114-200.163-0.242-300.245-1.321l-150.123-1.614c-50.041-0.959-100.082-1.525-150.122-2.847
					c-0.851-0.023-1.523-0.731-1.501-1.583C1529.237,935.61,1529.903,934.955,1530.716,934.932z"/>
				<path style="fill:#FFFFFF;" d="M1211.931,1643.25c76.606-1.322,153.213-1.889,229.819-2.848l229.818-1.614
					c76.607-0.687,153.213-0.613,229.819-0.826l229.819-0.476l229.819,0.542c76.606,0.328,153.213,0.149,229.819,0.891
					l229.819,1.763c76.606,1.046,153.213,1.657,229.819,3.074c0.572,0.011,1.026,0.483,1.015,1.054
					c-0.01,0.558-0.462,1.005-1.015,1.016c-76.606,1.416-153.213,2.028-229.819,3.075l-229.819,1.762
					c-76.606,0.743-153.213,0.564-229.819,0.891l-229.819,0.542l-229.819-0.477c-76.606-0.212-153.212-0.138-229.819-0.825
					l-229.818-1.614c-76.607-0.959-153.213-1.525-229.819-2.848c-0.851-0.015-1.529-0.717-1.515-1.568
					C1210.431,1643.932,1211.105,1643.265,1211.931,1643.25z"/>
				<path style="fill:#FFFFFF;" d="M1285.411,1997.408c70.483-1.321,140.966-1.889,211.449-2.847l211.449-1.614
					c70.483-0.688,140.966-0.613,211.449-0.826l211.448-0.477l211.449,0.542c70.483,0.327,140.966,0.148,211.449,0.891
					l211.449,1.762c70.483,1.046,140.966,1.658,211.449,3.074c0.572,0.012,1.026,0.484,1.014,1.055
					c-0.011,0.557-0.462,1.002-1.014,1.014c-70.483,1.416-140.966,2.028-211.449,3.074l-211.449,1.763
					c-70.483,0.742-140.966,0.563-211.449,0.89l-211.449,0.543l-211.448-0.476c-70.483-0.213-140.966-0.138-211.449-0.826
					l-211.449-1.614c-70.483-0.959-140.966-1.525-211.449-2.847c-0.851-0.016-1.528-0.719-1.512-1.57
					C1283.914,1998.09,1284.587,1997.425,1285.411,1997.408z"/>
				<path style="fill:#FFFFFF;" d="M2761.952,2358.513H1560.974c-2.984,0-5.404-2.42-5.404-5.404c0-2.984,2.42-5.404,5.404-5.404
					h1200.978c2.984,0,5.404,2.419,5.404,5.404C2767.356,2356.093,2764.937,2358.513,2761.952,2358.513z"/>
			</g>
		</g>
		<g>
			
				<linearGradient id="SVGID_00000150796193142316573910000009884694159270609082_" gradientUnits="userSpaceOnUse" x1="-947.2855" y1="2861.1797" x2="-361.2908" y2="1103.1908" gradientTransform="matrix(-1 0 0 1 1155.7772 0)">
				<stop  offset="0" style="stop-color:#09005D"/>
				<stop  offset="1" style="stop-color:#1A0F91"/>
			</linearGradient>
			<path style="fill:url(#SVGID_00000150796193142316573910000009884694159270609082_);" d="M589.976,2924.954
				c0,25.211,20.648,45.839,45.883,45.839h2481.154c25.235,0,45.883-20.627,45.883-45.839l20.646-1425.851
				c0-25.211-29.703-74.43-84.139-70.731l-2424.857-62.743c-31.663-0.819-62.278,11.368-84.7,33.717s-34.691,52.906-33.942,84.54
				L589.976,2924.954z"/>
			<path style="fill:#91B3FA;" d="M635.275,2880.978c0,23.874,19.534,43.408,43.408,43.408h2378.496
				c23.875,0,43.408-19.534,43.408-43.408l19.482-1294.4c-2.295-77.894-70.586-105.89-111.983-104.237l-2324.005-62.349
				c-22.245-0.597-43.752,7.974-59.507,23.688c-15.755,15.715-24.42,37.222-23.862,59.467L635.275,2880.978z"/>
			
				<linearGradient id="SVGID_00000067231828554645478110000002331475194505891749_" gradientUnits="userSpaceOnUse" x1="320.2184" y1="2783.1716" x2="-2146.1794" y2="3383.106" gradientTransform="matrix(-1 0 0 1 1155.7772 0)">
				<stop  offset="0" style="stop-color:#09005D"/>
				<stop  offset="1" style="stop-color:#1A0F91"/>
			</linearGradient>
			<path style="fill:url(#SVGID_00000067231828554645478110000002331475194505891749_);" d="M513.959,3113.669h2744.81
				c3.11,0,5.654-2.544,5.654-5.654V2969.53c0-3.11-2.544-5.654-5.654-5.654H513.959c-3.11,0-5.654,2.544-5.654,5.654v138.486
				C508.305,3111.125,510.849,3113.669,513.959,3113.669z"/>
			<path style="fill:#BDD0FB;" d="M1698.166,2752.662H823.975c-32.08,0-58.352-25.494-59.317-57.559L732.86,1638.039
				c-1.025-34.065,26.787-61.992,60.855-61.108l905.99,23.502c32.164,0.834,57.804,27.148,57.804,59.323v1033.562
				C1757.51,2726.093,1730.941,2752.662,1698.166,2752.662z"/>
			<path style="fill:#BDD0FB;" d="M2831.747,2752.662h-821.163c-46.27,0-83.779-37.509-83.779-83.779v-983.172
				c0-46.27,37.509-83.779,83.779-83.779h853.201c47.339,0,85.276,39.193,83.734,86.508l-32.038,983.172
				C2914.009,2716.795,2876.954,2752.662,2831.747,2752.662z"/>
			<g style="opacity:0.51;">
				<path style="fill:#FFFFFF;" d="M1686.688,1848.465H811.869c-4.663,0-8.443-3.78-8.443-8.443v-42.332
					c0-4.663,3.78-8.443,8.443-8.443h874.819c4.663,0,8.443,3.78,8.443,8.443v42.332
					C1695.13,1844.686,1691.35,1848.465,1686.688,1848.465z"/>
				<path style="fill:#FFFFFF;" d="M1680.907,1968.826H806.089c-4.663,0-8.443-3.78-8.443-8.443v-42.332
					c0-4.663,3.78-8.443,8.443-8.443h874.819c4.663,0,8.443,3.78,8.443,8.443v42.332
					C1689.35,1965.046,1685.57,1968.826,1680.907,1968.826z"/>
				<path style="fill:#FFFFFF;" d="M1679.039,2103.09H804.22c-4.663,0-8.443-3.78-8.443-8.442v-42.332
					c0-4.663,3.78-8.442,8.443-8.442h874.819c4.663,0,8.443,3.78,8.443,8.442v42.332
					C1687.481,2099.31,1683.702,2103.09,1679.039,2103.09z"/>
				<path style="fill:#FFFFFF;" d="M1673.259,2223.45H798.44c-4.663,0-8.443-3.78-8.443-8.442v-42.332
					c0-4.663,3.78-8.442,8.443-8.442h874.819c4.663,0,8.443,3.78,8.443,8.442v42.332
					C1681.701,2219.671,1677.921,2223.45,1673.259,2223.45z"/>
			</g>
			<g>
				<path style="opacity:0.51;fill:#FFFFFF;" d="M2870.844,1854.472h-874.819c-4.663,0-8.443-3.78-8.443-8.443v-42.332
					c0-4.663,3.78-8.443,8.443-8.443h874.819c4.663,0,8.443,3.78,8.443,8.443v42.332
					C2879.287,1850.692,2875.507,1854.472,2870.844,1854.472z"/>
				<path style="opacity:0.51;fill:#FFFFFF;" d="M2865.064,1974.833h-874.819c-4.663,0-8.443-3.78-8.443-8.443v-42.332
					c0-4.663,3.78-8.443,8.443-8.443h874.819c4.663,0,8.443,3.78,8.443,8.443v42.332
					C2873.507,1971.053,2869.727,1974.833,2865.064,1974.833z"/>
				<path style="opacity:0.51;fill:#FFFFFF;" d="M2863.196,2109.096h-874.819c-4.663,0-8.443-3.78-8.443-8.443v-42.332
					c0-4.663,3.78-8.443,8.443-8.443h874.819c4.663,0,8.443,3.78,8.443,8.443v42.332
					C2871.638,2105.317,2867.858,2109.096,2863.196,2109.096z"/>
				<path style="opacity:0.51;fill:#FFFFFF;" d="M2857.415,2229.457h-874.819c-4.663,0-8.443-3.78-8.443-8.443v-42.332
					c0-4.663,3.78-8.443,8.443-8.443h874.819c4.663,0,8.443,3.78,8.443,8.443v42.332
					C2865.858,2225.677,2862.078,2229.457,2857.415,2229.457z"/>
			</g>
			<g style="opacity:0.82;">
				<path style="fill:#FFFFFF;" d="M1063.042,1715.918H794.59c-2.65,0-4.798-2.148-4.798-4.798v-68.803
					c0-2.65,2.148-4.798,4.798-4.798h268.452c2.65,0,4.798,2.148,4.798,4.798v68.803
					C1067.84,1713.77,1065.692,1715.918,1063.042,1715.918z"/>
				<path style="fill:#FFFFFF;" d="M1362.221,1715.918h-268.452c-2.65,0-4.798-2.148-4.798-4.798v-68.803
					c0-2.65,2.148-4.798,4.798-4.798h268.452c2.65,0,4.798,2.148,4.798,4.798v68.803
					C1367.019,1713.77,1364.871,1715.918,1362.221,1715.918z"/>
				<path style="fill:#FFFFFF;" d="M1662.395,1715.918h-268.452c-2.65,0-4.798-2.148-4.798-4.798v-68.803
					c0-2.65,2.148-4.798,4.798-4.798h268.452c2.65,0,4.798,2.148,4.798,4.798v68.803
					C1667.193,1713.77,1665.045,1715.918,1662.395,1715.918z"/>
			</g>
			<g style="opacity:0.75;">
				<path style="fill:#FFFFFF;" d="M2261.767,1715.918h-268.452c-2.65,0-4.798-2.148-4.798-4.798v-68.803
					c0-2.65,2.148-4.798,4.798-4.798h268.452c2.65,0,4.798,2.148,4.798,4.798v68.803
					C2266.565,1713.77,2264.417,1715.918,2261.767,1715.918z"/>
				<path style="fill:#FFFFFF;" d="M2560.946,1715.918h-268.452c-2.65,0-4.798-2.148-4.798-4.798v-68.803
					c0-2.65,2.148-4.798,4.798-4.798h268.452c2.65,0,4.798,2.148,4.798,4.798v68.803
					C2565.745,1713.77,2563.596,1715.918,2560.946,1715.918z"/>
				<path style="fill:#FFFFFF;" d="M2861.12,1715.918h-268.452c-2.65,0-4.798-2.148-4.798-4.798v-68.803
					c0-2.65,2.148-4.798,4.798-4.798h268.452c2.65,0,4.798,2.148,4.798,4.798v68.803
					C2865.918,1713.77,2863.77,1715.918,2861.12,1715.918z"/>
			</g>
		</g>
		<g>
			<g>
				<g>
					<path style="fill:#91B3FA;" d="M1897.961,3193.013l-1342.503,0.002v-268.701l1342.503,0.002
						C1869.226,2924.315,1869.226,3193.013,1897.961,3193.013z"/>
					
						<linearGradient id="SVGID_00000013155964607387792910000002900621279919955634_" gradientUnits="userSpaceOnUse" x1="1378.4033" y1="4895.2349" x2="1276.9635" y2="3870.6897">
						<stop  offset="0" style="stop-color:#4F52FF"/>
						<stop  offset="1" style="stop-color:#4042E2"/>
					</linearGradient>
					<path style="fill:url(#SVGID_00000013155964607387792910000002900621279919955634_);" d="M555.458,3125.774v-122.969
						c0-43.349,26.531-78.49,59.257-78.49H1892.3c25.736,0,46.6-20.863,46.6-46.6v0c0-7.82-6.339-14.158-14.159-14.158H528.439
						c-32.021,0-82.862,50.345-82.862,112.449v171.741c0,58.555,49.356,106.023,79.548,106.023h1392.27
						c11.876,0,21.504-9.628,21.504-21.504c0-21.679-17.574-39.253-39.252-39.253H606.221
						C578.185,3193.013,555.458,3162.909,555.458,3125.774z"/>
				</g>
				<path style="fill:#FFFFFF;" d="M1851.469,2982.829H592.692c-1.869,0-3.381-1.512-3.381-3.381c0-1.869,1.512-3.381,3.381-3.381
					h1258.777c1.869,0,3.381,1.512,3.381,3.381C1854.85,2981.316,1853.338,2982.829,1851.469,2982.829z"/>
				<path style="fill:#FFFFFF;" d="M1851.469,3022.71H592.692c-1.869,0-3.381-1.512-3.381-3.381c0-1.869,1.512-3.381,3.381-3.381
					h1258.777c1.869,0,3.381,1.512,3.381,3.381C1854.85,3021.198,1853.338,3022.71,1851.469,3022.71z"/>
				<path style="fill:#FFFFFF;" d="M1851.469,3062.596H592.692c-1.869,0-3.381-1.512-3.381-3.381s1.512-3.381,3.381-3.381h1258.777
					c1.869,0,3.381,1.512,3.381,3.381S1853.338,3062.596,1851.469,3062.596z"/>
				<path style="fill:#FFFFFF;" d="M1851.469,3102.478H592.692c-1.869,0-3.381-1.512-3.381-3.381c0-1.869,1.512-3.381,3.381-3.381
					h1258.777c1.869,0,3.381,1.512,3.381,3.381C1854.85,3100.965,1853.338,3102.478,1851.469,3102.478z"/>
				<path style="fill:#FFFFFF;" d="M1851.469,3142.363H592.692c-1.869,0-3.381-1.512-3.381-3.381s1.512-3.381,3.381-3.381h1258.777
					c1.869,0,3.381,1.512,3.381,3.381S1853.338,3142.363,1851.469,3142.363z"/>
			</g>
			<g>
				
					<linearGradient id="SVGID_00000103975710359491724320000010464435811395912103_" gradientUnits="userSpaceOnUse" x1="1158.2275" y1="2335.6787" x2="1178.5812" y2="483.5055">
					<stop  offset="0" style="stop-color:#4F52FF"/>
					<stop  offset="1" style="stop-color:#4042E2"/>
				</linearGradient>
				<path style="fill:url(#SVGID_00000103975710359491724320000010464435811395912103_);" d="M1778.177,2862.335H530.12
					c-11.098,0-20.095-8.997-20.095-20.095v-270.772c0-11.098,8.997-20.095,20.095-20.095h1248.056
					c11.098,0,20.095,8.997,20.095,20.095v270.772C1798.272,2853.338,1789.275,2862.335,1778.177,2862.335z"/>
				<path style="fill:#91B3FA;" d="M799.714,2826.596H662.857c-4,0-7.242-3.242-7.242-7.242v-225.002c0-4,3.242-7.242,7.242-7.242
					h136.857c4,0,7.242,3.242,7.242,7.242v225.002C806.956,2823.354,803.713,2826.596,799.714,2826.596z"/>
				<path style="fill:#91B3FA;" d="M882.33,2826.596h-49.446c-2.027,0-3.67-1.643-3.67-3.669V2590.78c0-2.027,1.643-3.67,3.67-3.67
					h49.446c2.027,0,3.669,1.643,3.669,3.669v232.147C886,2824.953,884.357,2826.596,882.33,2826.596z"/>
			</g>
		</g>
		<g>
			
				<linearGradient id="SVGID_00000128447885867262116100000000305243599444435632_" gradientUnits="userSpaceOnUse" x1="-759.0197" y1="1124.8663" x2="-451.1191" y2="1549.7098" gradientTransform="matrix(-0.893 -0.4501 -0.4501 0.893 1127.6429 670.6548)">
				<stop  offset="0" style="stop-color:#09005D"/>
				<stop  offset="1" style="stop-color:#1A0F91"/>
			</linearGradient>
			<path style="fill:url(#SVGID_00000128447885867262116100000000305243599444435632_);" d="M1168,1980.133
				c0,0-0.037,11.446-37.002,10.731c-20.611-0.399-58.832-4.897-80.427,27.347c-11.148,16.647-31.456,24.247-50.508,18.043
				c-47.453-15.451-126.864-26.792-176.272,44.212c-37.712,54.196-19.109,91.33,8.26,114.731
				c20.102,17.189,24.101,47.184,7.788,68.003c-15.645,19.969-21.952,48.991,6.295,88.693
				c63.299,88.965,226.683-20.93,226.683-20.93l152.561-258.776L1168,1980.133z"/>
			<path style="fill:#FFFFFF;" d="M861.686,2166.77c-1.895,0-3.794-1.783-5.022-3.899c-13.534-23.291-10.628-55.806,7.072-79.067
				c10.605-13.937,24.915-23.357,40.295-26.52c10.906-2.252,22.066-1.351,32.562-0.241c17.694,1.872,35.5,4.639,52.93,8.225
				c1.43,0.294,2.863,0.594,4.296,0.895c10.169,2.133,20.689,4.339,31.192,4.368c0.066,0,0.129,0,0.192,0
				c13.389,0,25.093-3.873,32.981-10.912c4.926-4.401,8.614-10.169,12.183-15.749c4.371-6.841,8.895-13.914,15.729-18.477
				c0.192-0.129,0.456-0.079,0.584,0.116c0.132,0.195,0.079,0.456-0.115,0.584c-6.686,4.467-11.16,11.464-15.489,18.232
				c-3.596,5.63-7.317,11.447-12.332,15.921c-8.043,7.181-19.949,11.13-33.542,11.13c-0.066,0-0.129,0-0.192,0
				c-10.592-0.03-21.154-2.245-31.367-4.388c-1.43-0.301-2.863-0.601-4.292-0.895c-17.4-3.579-35.18-6.339-52.845-8.211
				c-10.437-1.103-21.514-1.994-32.304,0.228c-15.178,3.127-29.31,12.431-39.793,26.209c-17.499,22.993-20.382,55.123-7.013,78.129
				c0.987,1.704,3.199,4.296,5.283,3.229c0.205-0.106,0.466-0.03,0.568,0.178c0.109,0.205,0.03,0.462-0.178,0.568
				C862.617,2166.661,862.152,2166.77,861.686,2166.77z"/>
			<path style="fill:#FFFFFF;" d="M861.461,2155.69c-0.198,0-0.376-0.142-0.416-0.344c-2.902-15.383-1.71-29.729,3.444-41.48
				c6.036-13.768,17.938-23.888,31.063-26.414c0.228-0.023,0.449,0.109,0.495,0.337c0.043,0.228-0.106,0.449-0.337,0.495
				c-12.854,2.473-24.522,12.405-30.449,25.919c-5.085,11.599-6.253,25.77-3.384,40.985c0.043,0.231-0.109,0.452-0.337,0.495
				C861.514,2155.686,861.488,2155.69,861.461,2155.69z"/>
			
				<linearGradient id="SVGID_00000031901957199511842620000004856216186857143475_" gradientUnits="userSpaceOnUse" x1="20263.4023" y1="2495.8494" x2="19943.9023" y2="2678.2156" gradientTransform="matrix(1 0 0 1 -18628.4668 0)">
				<stop  offset="0" style="stop-color:#FEBBBA"/>
				<stop  offset="1" style="stop-color:#FF928E"/>
			</linearGradient>
			<path style="fill:url(#SVGID_00000031901957199511842620000004856216186857143475_);" d="M1586.361,2793.15
				c-0.376-0.145-203.033-355.044-230.418-388.443c-4.607-5.617-11.737-8.478-18.952-7.618l-56.565,6.74l-66.452,143.759
				l110.706-64.474c-10.954,75.761,131.263,188.353,180.038,229.436c4.95,4.169,5.356,11.637,0.886,16.317l-19.473,20.384
				c31.968,32.404,68.858,53.211,110.492,62.834L1586.361,2793.15z"/>
			
				<linearGradient id="SVGID_00000126314937419256997210000017704815701668420263_" gradientUnits="userSpaceOnUse" x1="-13073.4219" y1="1415.2477" x2="-12779.29" y2="867.5536" gradientTransform="matrix(-0.8974 -0.4412 -0.4412 0.8974 -9333.1885 2161.1482)">
				<stop  offset="0" style="stop-color:#09005D"/>
				<stop  offset="1" style="stop-color:#1A0F91"/>
			</linearGradient>
			<path style="fill:url(#SVGID_00000126314937419256997210000017704815701668420263_);" d="M1497.396,2738.25
				c0,0-12.427,4.015-16.635,15.083c-2.013,5.296,0.157,11.294,4.763,14.593c20.464,14.661,87.964,61.994,119.114,71.264
				c2.553,0.76,4.982-1.551,4.408-4.152c-1.598-7.236-6.769-21.687-23.427-42.841l1.494,3.023c1.891,3.826-2.275,7.809-5.991,5.711
				C1560.287,2789.171,1517.851,2763.429,1497.396,2738.25z"/>
			
				<linearGradient id="SVGID_00000032644461416694267010000016128119039919566776_" gradientUnits="userSpaceOnUse" x1="20232.4961" y1="2541.3296" x2="21325.6719" y2="1856.9846" gradientTransform="matrix(1 0 0 1 -18628.4668 0)">
				<stop  offset="0" style="stop-color:#FEBBBA"/>
				<stop  offset="1" style="stop-color:#FF928E"/>
			</linearGradient>
			<path style="fill:url(#SVGID_00000032644461416694267010000016128119039919566776_);" d="M1507.425,2880.254
				c-0.34-0.218-30.745-73.474-31.085-73.691c-27.878-169.732-95.894-315.095-115.953-353.345
				c-3.375-6.434-9.778-10.677-17.018-11.296l-56.758-4.846l-94.171,127.336l121.463-40.735
				c-26.06,71.977,90.428,211.02,129.88,261.124c4.003,5.085,2.89,12.48-2.435,16.158l-23.194,16.021
				c24.749,38.203,56.663,66.045,95.489,83.895L1507.425,2880.254z"/>
			
				<linearGradient id="SVGID_00000005984963034308917700000011472228051542579856_" gradientUnits="userSpaceOnUse" x1="-15584.5771" y1="6590.1807" x2="-15290.4463" y2="6042.4873" gradientTransform="matrix(-0.7895 -0.6137 -0.6137 0.7895 -9350.7773 3191.1018)">
				<stop  offset="0" style="stop-color:#09005D"/>
				<stop  offset="1" style="stop-color:#1A0F91"/>
			</linearGradient>
			<path style="fill:url(#SVGID_00000005984963034308917700000011472228051542579856_);" d="M1431.411,2808.485
				c0,0-12.983,1.417-19.343,11.405c-3.043,4.779-2.132,11.092,1.711,15.255c17.073,18.499,73.598,78.513,102.227,93.896
				c2.347,1.261,5.193-0.51,5.157-3.174c-0.101-7.41-2.24-22.608-14.272-46.696l0.852,3.263c1.078,4.13-3.808,7.187-7.023,4.381
				C1482.696,2871.08,1446.348,2837.283,1431.411,2808.485z"/>
			<g>
				
					<linearGradient id="SVGID_00000180338169950206911040000007679059292710088616_" gradientUnits="userSpaceOnUse" x1="12060.4043" y1="2296.7585" x2="11666.8701" y2="3008.1482" gradientTransform="matrix(1 0 0 1 -10796.7676 0)">
					<stop  offset="0" style="stop-color:#09005D"/>
					<stop  offset="1" style="stop-color:#1A0F91"/>
				</linearGradient>
				<path style="fill:url(#SVGID_00000180338169950206911040000007679059292710088616_);" d="M1020.932,2410.257
					c0,0-51.345,76.37-55.559,111.206c-4.213,34.837,14.198,46.883,67.939,51.326c159.925,13.22,238.762-34.71,238.762-34.71
					c10.94-69.753,18.724-87.499,110.092-125.425c0,0-115.565,9.175-138.823,0.149
					C1220.086,2403.779,1020.932,2410.257,1020.932,2410.257z"/>
			</g>
			<g>
				
					<linearGradient id="SVGID_00000026160151923612554410000009859786221012924032_" gradientUnits="userSpaceOnUse" x1="1864.7303" y1="1880.9188" x2="1459.0297" y2="2098.9827">
					<stop  offset="0" style="stop-color:#FF928E"/>
					<stop  offset="1" style="stop-color:#FE7062"/>
				</linearGradient>
				<path style="fill:url(#SVGID_00000026160151923612554410000009859786221012924032_);" d="M1159.79,2400.147
					c0,0,59.792-56.935,89.224-94.644c15.91-20.384,20.906-47.219,13.548-72.009c-13.437-45.271-37.317-92.159-39.496-99.457
					c-3.338-11.186-70.38-10.72-70.38-10.72s-131.927,85.621-183.761,230.658l58.213,18.123c0,0,34.446-57.789,68.481-94.531
					c0,0-58.892,77.799-60.966,109.647L1159.79,2400.147z"/>
				
					<linearGradient id="SVGID_00000152222112422424294760000017187469418840171401_" gradientUnits="userSpaceOnUse" x1="-11407.5459" y1="2213.1377" x2="-11429.2539" y2="2073.8455" gradientTransform="matrix(-1 0 0 1 -10232.0039 0)">
					<stop  offset="0" style="stop-color:#FEBBBA"/>
					<stop  offset="1" style="stop-color:#FF928E"/>
				</linearGradient>
				<path style="fill:url(#SVGID_00000152222112422424294760000017187469418840171401_);" d="M1231.175,2071.523
					c-0.7,2.325-18.199,60.335-19.567,61.539c-1.369,1.204-38.375,3.195-55.794-8.71l35.552-78.648L1231.175,2071.523z"/>
				
					<linearGradient id="SVGID_00000158029191321776558330000010851749971618498719_" gradientUnits="userSpaceOnUse" x1="-11307.3467" y1="2390.7307" x2="-10989.0762" y2="2390.7307" gradientTransform="matrix(-1 0 0 1 -10232.0039 0)">
					<stop  offset="0" style="stop-color:#FEBBBA"/>
					<stop  offset="1" style="stop-color:#FF928E"/>
				</linearGradient>
				<path style="fill:url(#SVGID_00000158029191321776558330000010851749971618498719_);" d="M1273.713,2422.615l-44.927-48.882
					l-51.887,13.972c0,0-60.492,9.373-95.114,0c-34.622-9.372-34.622-9.372-34.622-9.372l-78.238-24.357l-12.288,34.727
					c-3.12,8.817,0.016,18.605,7.639,24.023c6.769,4.809,14.703,10.095,19.76,12.308c10.303,4.507,237.344,1.425,237.344,1.425
					L1273.713,2422.615z"/>
			</g>
			<g>
				
					<linearGradient id="SVGID_00000013879415954230853780000005556705539021605521_" gradientUnits="userSpaceOnUse" x1="-11387.0986" y1="1881.8232" x2="-11553.5957" y2="1927.4557" gradientTransform="matrix(-0.9988 -0.0494 -0.0494 0.9988 -10190.5352 -55.0328)">
					<stop  offset="0" style="stop-color:#09005D"/>
					<stop  offset="1" style="stop-color:#1A0F91"/>
				</linearGradient>
				<path style="fill:url(#SVGID_00000013879415954230853780000005556705539021605521_);" d="M1124.997,2441.961
					c0.158,0.008,0.316,0.012,0.475,0.011l206.648-0.225c5.108-0.004,9.245-4.15,9.24-9.259c-0.005-5.11-4.165-9.332-9.26-9.24
					l-206.648,0.225c-5.108,0.004-9.245,4.15-9.24,9.259C1116.217,2437.681,1120.11,2441.719,1124.997,2441.961z"/>
				
					<linearGradient id="SVGID_00000022530521288598619900000011602585088434718133_" gradientUnits="userSpaceOnUse" x1="-11547.2871" y1="2279.4966" x2="-11665.4238" y2="2404.3604" gradientTransform="matrix(-1 0 0 1 -10232.0039 0)">
					<stop  offset="0" style="stop-color:#09005D"/>
					<stop  offset="1" style="stop-color:#1A0F91"/>
				</linearGradient>
				<path style="fill:url(#SVGID_00000022530521288598619900000011602585088434718133_);" d="M1517.887,2254.338h-172.098
					c-12.696,0-24.251,7.326-29.666,18.809l-79.561,168.704h213.871c8.182,0,15.532-4.999,18.54-12.608l61.696-156.111
					C1534.233,2264.113,1527.586,2254.338,1517.887,2254.338z"/>
				<path style="fill:#7D97F4;" d="M1396.642,2340.837c-3.729,11.587-0.974,22.84,6.154,25.134
					c7.128,2.295,15.93-5.239,19.659-16.825c3.729-11.587,0.974-22.84-6.154-25.134
					C1409.173,2321.718,1400.372,2329.25,1396.642,2340.837z"/>
			</g>
			<g>
				
					<linearGradient id="SVGID_00000022536746129230175080000015693269064616546692_" gradientUnits="userSpaceOnUse" x1="-4711.6821" y1="481.7897" x2="-4547.4878" y2="189.5785" gradientTransform="matrix(-0.7885 -0.615 -0.615 0.7885 -2213.0879 -1124.1753)">
					<stop  offset="0" style="stop-color:#FEBBBA"/>
					<stop  offset="1" style="stop-color:#FF928E"/>
				</linearGradient>
				<path style="fill:url(#SVGID_00000022536746129230175080000015693269064616546692_);" d="M1264.235,1992.776
					c0,0,15.706,28.153,5.237,74.411c-10.47,46.258-34.546,52.609-51.156,43.105c-16.609-9.504-38.69-27.251-45.268-67.538
					C1166.471,2002.468,1242.935,1957.312,1264.235,1992.776z"/>
				
					<linearGradient id="SVGID_00000084527326064457963630000017082169705718738089_" gradientUnits="userSpaceOnUse" x1="-729.51" y1="1072.8199" x2="-407.9039" y2="1516.5745" gradientTransform="matrix(-0.893 -0.4501 -0.4501 0.893 1127.6429 670.6548)">
					<stop  offset="0" style="stop-color:#09005D"/>
					<stop  offset="1" style="stop-color:#1A0F91"/>
				</linearGradient>
				<path style="fill:url(#SVGID_00000084527326064457963630000017082169705718738089_);" d="M1203.02,2037.074
					c0,0,20.945-63.288,65.296-29.639l4.698,15.275c0,0,37.514-14.889,21.299-48.608c-16.215-33.719-55.592-47.025-94.618-20.185
					c-39.024,26.84-59.538,49.182-54.113,80.816c5.427,31.634,28.207,18.331,28.207,18.331s2.237-23.886,13.037-29.176
					c10.798-5.29,12.342,12.463,12.342,12.463L1203.02,2037.074z"/>
				
					<linearGradient id="SVGID_00000013896512363479442390000016402133101607956140_" gradientUnits="userSpaceOnUse" x1="-4684.3359" y1="511.1793" x2="-4520.1445" y2="218.9739" gradientTransform="matrix(-0.7885 -0.615 -0.615 0.7885 -2213.0879 -1124.1753)">
					<stop  offset="0" style="stop-color:#FEBBBA"/>
					<stop  offset="1" style="stop-color:#FF928E"/>
				</linearGradient>
				<path style="fill:url(#SVGID_00000013896512363479442390000016402133101607956140_);" d="M1193.797,2051.115
					c0,0,10.958-32.469-8.881-31.607c-19.838,0.862-8.688,31.112-3.616,42.047L1193.797,2051.115z"/>
			</g>
		</g>
		<g>
			<path style="fill:#7D97F4;" d="M1471.447,1449.454c41.528-52.007,65.443-113.066,65.443-178.378
				c0-189.918-202.215-343.877-451.659-343.877s-451.659,153.959-451.659,343.877c0,189.918,202.215,343.877,451.659,343.877
				c93.489,0,180.342-21.627,252.402-58.667c47.631,8.126,121.568,21.779,160.584,29.041c11.488,2.138,20.901-9.096,16.788-20.034
				L1471.447,1449.454z"/>
			<g>
				<path style="fill:#FFFFFF;" d="M902.629,1341.447h-29.686v-60.62h-55.625v60.62h-29.782v-140.455h29.782v55.049h55.625v-55.049
					h29.686V1341.447z"/>
				<path style="fill:#FFFFFF;" d="M1085.243,1271.027c0,23.249-5.764,41.118-17.293,53.607
					c-11.529,12.489-28.053,18.734-49.572,18.734c-21.52,0-38.044-6.245-49.573-18.734c-11.528-12.489-17.293-30.422-17.293-53.799
					c0-23.377,5.78-41.23,17.341-53.559c11.561-12.329,28.133-18.494,49.717-18.494s38.092,6.213,49.524,18.638
					C1079.527,1229.845,1085.243,1247.714,1085.243,1271.027z M982.736,1271.027c0,15.692,2.978,27.508,8.935,35.45
					c5.956,7.942,14.859,11.913,26.708,11.913c23.761,0,35.642-15.788,35.642-47.363c0-31.639-11.817-47.459-35.45-47.459
					c-11.849,0-20.783,3.987-26.804,11.961C985.746,1243.503,982.736,1255.336,982.736,1271.027z"/>
				<path style="fill:#FFFFFF;" d="M1134.023,1341.447v-140.455h29.782v115.861h56.97v24.594H1134.023z"/>
				<path style="fill:#FFFFFF;" d="M1350.838,1341.447l-10.184-33.432h-51.206l-10.183,33.432h-32.088l49.572-141.031h36.411
					l49.765,141.031H1350.838z M1333.546,1283.036c-9.415-30.294-14.715-47.427-15.9-51.398c-1.185-3.971-2.033-7.109-2.546-9.415
					c-2.114,8.198-8.166,28.469-18.157,60.813H1333.546z"/>
			</g>
		</g>
		<g>
			<path style="fill:#7D97F4;" d="M2454.995,1910.978c-39.8,49.843-62.72,108.361-62.72,170.956
				c0,182.016,193.802,329.569,432.867,329.569s432.867-147.553,432.867-329.569s-193.802-329.569-432.867-329.569
				c-89.6,0-172.839,20.727-241.901,56.226c-45.649-7.788-116.51-20.873-153.903-27.833c-11.01-2.049-20.031,8.718-16.089,19.2
				L2454.995,1910.978z"/>
			<g>
				<path style="fill:#FFFFFF;" d="M2627.606,2141.975h-25.549v-52.173h-47.873v52.173h-25.632v-120.882h25.632v47.377h47.873
					v-47.377h25.549V2141.975z"/>
				<path style="fill:#FFFFFF;" d="M2744.671,2141.975h-69.618v-120.882h69.618v21.001h-43.987v26.541h40.928v21.001h-40.928v31.171
					h43.987V2141.975z"/>
				<path style="fill:#FFFFFF;" d="M2786.818,2141.975v-120.882h25.632v99.715h49.031v21.167H2786.818z"/>
				<path style="fill:#FFFFFF;" d="M2899.418,2141.975v-120.882h25.632v99.715h49.031v21.167H2899.418z"/>
				<path style="fill:#FFFFFF;" d="M3121.73,2081.368c0,20.009-4.961,35.388-14.883,46.137
					c-9.922,10.749-24.143,16.123-42.664,16.123s-32.742-5.374-42.664-16.123c-9.922-10.749-14.883-26.183-14.883-46.302
					c0-20.119,4.975-35.484,14.924-46.095c9.949-10.611,24.212-15.916,42.788-15.916c18.576,0,32.784,5.347,42.623,16.04
					C3116.811,2045.925,3121.73,2061.304,3121.73,2081.368z M3033.508,2081.368c0,13.505,2.563,23.675,7.689,30.51
					c5.126,6.835,12.788,10.253,22.986,10.253c20.45,0,30.675-13.588,30.675-40.762c0-27.23-10.17-40.845-30.51-40.845
					c-10.198,0-17.887,3.431-23.068,10.294C3036.099,2057.68,3033.508,2067.864,3033.508,2081.368z"/>
			</g>
		</g>
		<g>
			
				<linearGradient id="SVGID_00000067237216613673745420000006596394174072775851_" gradientUnits="userSpaceOnUse" x1="4667.668" y1="135.6041" x2="4403.9155" y2="1068.8804" gradientTransform="matrix(-0.9993 -0.0369 -0.0369 0.9993 6830.0493 134.7185)">
				<stop  offset="0" style="stop-color:#FF928E"/>
				<stop  offset="1" style="stop-color:#FE7062"/>
			</linearGradient>
			<path style="fill:url(#SVGID_00000067237216613673745420000006596394174072775851_);" d="M2110.035,1430.579
				c-35.861-48.222-55.462-103.305-53.338-160.76c6.175-167.068,194.743-293.279,424.167-281.751
				c232.797,11.698,418.903,160.37,412.563,331.911s-202.59,297.291-435.221,281.088c-86.315-6.012-165.374-30.743-230.041-68.064
				c-43.66,4.229-111.229,11.687-146.771,15.66c-10.449,1.167-18.584-9.305-14.514-18.678L2110.035,1430.579z"/>
			<g>
				<path style="fill:#FFFFFF;" d="M2340.13,1192.689c-0.708,2.121-3.067,3.304-6.609,3.067
					c-6.138,17.938-13.455,36.11-21.476,53.34l8.967,2.125c-0.471,2.359-2.359,4.009-6.371,4.484v149.632h-28.085v-109.984
					c-5.196,8.025-10.621,15.58-16.051,22.188c-3.775-6.375-12.038-18.884-16.992-25.018
					c21.005-24.547,41.773-68.207,54.048-109.984L2340.13,1192.689z M2478.432,1225.728c0,1.183-3.067,28.797-10.384,57.823
					l-17.463-3.067c13.451,25.018,25.018,57.353,29.264,79.299l-27.143,9.913c-3.3-21.947-14.867-55.698-27.61-80.716l24.543-8.734
					l-5.663-0.942c1.179-7.317,2.358-17.467,3.775-27.851h-29.031v122.255c0,21.713-4.721,31.864-45.785,31.864
					c-1.417-8.263-5.663-21.005-9.676-28.559c9.913,0.237,20.059,0.237,23.364,0.237c3.067,0,4.012-0.946,4.012-4.013v-121.785
					h-25.255c-7.55,16.521-16.047,31.389-25.489,43.189c-4.955-5.192-15.105-13.688-21.476-17.934
					c17.463-20.772,31.86-57.59,39.652-93.462l33.039,8.734c-0.708,1.888-2.829,3.304-6.371,3.067
					c-2.596,10.15-5.663,20.297-9.205,30.21h87.562L2478.432,1225.728z M2384.028,1290.635c-0.471,1.888-2.833,3.067-5.9,3.067
					c-7.079,27.614-19.117,58.061-33.043,77.174c-5.426-4.246-15.813-10.617-22.185-13.922
					c13.218-16.996,24.076-46.731,29.976-74.345L2384.028,1290.635z"/>
				<path style="fill:#FFFFFF;" d="M2596.196,1229.27l15.105,3.542l-1.417,4.717c-2.829,40.123-8.967,73.166-19.822,99.6
					c10.617,8.73,20.059,17.464,25.96,25.018l-16.993,22.893c-5.192-6.846-12.746-14.634-21.476-22.659
					c-11.092,18.409-25.489,32.572-43.194,43.664c-3.775-7.079-11.092-17.23-16.992-22.422
					c15.813-8.496,28.793-21.714,38.943-39.177c-4.246-3.542-8.734-6.609-12.98-9.913l-1.888,7.55l-23.13-12.034
					c5.429-19.592,11.33-46.26,16.992-73.874h-18.646v-26.197h23.601c3.071-16.522,5.9-32.568,8.263-47.202l32.097,3.304
					c-0.238,2.125-2.125,3.538-6.138,3.775c-2.359,12.271-4.955,25.964-7.788,40.123h24.784L2596.196,1229.27z M2561.27,1256.175
					c-3.779,17.701-7.792,35.639-11.567,52.161c5.663,3.538,11.801,7.55,17.938,11.801c6.609-18.176,11.33-39.652,14.159-63.961
					H2561.27z M2737.807,1286.147v26.905h-51.923v60.894c0,23.364-8.025,31.86-52.16,31.389c-1.417-7.788-6.134-20.063-9.913-27.851
					c8.734,0.237,17.938,0.475,23.601,0.475c8.025,0,9.913,0,9.913-4.25v-60.657h-50.269v-26.905h50.269v-36.343l8.734,0.471
					c8.025-8.259,16.051-19.117,22.893-29.501h-73.399v-26.197h93.933l4.721-1.417l21.947,13.217
					c-0.942,1.65-3.304,2.833-5.663,3.304c-11.092,16.522-28.322,38.469-44.606,54.048v22.418H2737.807z"/>
			</g>
		</g>
	</g>
</g>
</svg>
